<?xml version="1.0" standalone="no"?>
<!DOCTYPE svg PUBLIC "-//W3C//DTD SVG 1.1//EN" "http://www.w3.org/Graphics/SVG/1.1/DTD/svg11.dtd" >
<svg>
<metadata>
Created by FontForge 20110222 at Mon Aug  8 10:58:40 2011
 By www-data
Typeface (c) (your company). 2011. All Rights Reserved
</metadata>
<defs>
<font id="gabiieshandwritting" horiz-adv-x="1139" >
  <font-face 
    font-family="gabiies handwritting"
    font-weight="400"
    font-stretch="normal"
    units-per-em="2048"
    panose-1="2 0 0 0 0 0 0 0 0 0"
    ascent="1638"
    descent="-410"
    x-height="1669"
    cap-height="1853"
    bbox="-54 -440 1974 1860"
    underline-thickness="150"
    underline-position="-142"
    unicode-range="U+0020-2122"
  />
    <missing-glyph />
    <glyph glyph-name="space" unicode=" " horiz-adv-x="569" 
 />
    <glyph glyph-name="space" unicode="&#xa0;" horiz-adv-x="569" 
 />
    <glyph glyph-name="exclam" unicode="!" horiz-adv-x="603" 
d="M180 1809h26q90 0 90 -221q80 -683 116 -837h-9l27 -118q-48 -87 -116 -87h-45q-43 0 -81 497l-8 24l8 8l-71 545h9l-27 86q21 70 81 103zM331 208q114 -36 114 -78q-33 -137 -114 -137h-49q-14 0 -25 59q33 127 74 156z" />
    <glyph glyph-name="quotedbl" unicode="&#x22;" horiz-adv-x="727" 
d="M534 1571h22q69 -12 69 -56v-56l-57 -559l11 -18v-19q-50 -223 -148 -223l-23 130q0 387 34 522l-11 18v19q31 145 103 242zM179 1534h58q34 0 34 -149h11l-23 -410l12 -186q-38 -168 -126 -168h-11q-26 0 -46 168v521q0 93 91 224z" />
    <glyph glyph-name="numbersign" unicode="#" horiz-adv-x="1726" 
d="M566 1773q39 0 70 -410l244 21v11l-26 227v21l52 76h35q30 0 44 -216l26 -108h18v-11q139 30 435 44v-11l9 11h35q47 0 61 -44v-43q0 -50 -166 -97l-17 22q-349 0 -349 -33l26 -291h305l35 11q70 -9 70 -65q0 -57 -61 -108l-113 11l-218 -22q0 -267 52 -496
q-14 -130 -96 -130q-46 0 -78 626l-244 -32l61 -454q-6 -118 -79 -118h-8q-35 0 -35 108l-61 442q-304 -65 -401 -65l-18 65v22q0 75 314 108l87 21q-23 335 -61 335q-229 -43 -410 -108l-17 32v43q37 98 131 98l305 86l-44 356q53 65 87 65zM680 1222l-26 -10l43 -313
q215 10 253 32q-26 302 -52 302z" />
    <glyph glyph-name="dollar" unicode="$" 
d="M628 1816q19 -22 38 -242l146 24q126 0 236 -137v-8q0 -52 -38 -80h-26q-119 113 -197 113l-115 -25l19 -346l-6 -8q0 -77 64 -113q184 -196 184 -403v-48q0 -158 -178 -250v-16q0 -69 13 -105l-7 -8v-8l13 -56q0 -54 -64 -89q-50 0 -50 234h-102q-239 0 -459 419l-19 96
l6 8l-6 9q14 0 25 56h39l57 -153q190 -306 363 -306h83l-7 40h7l-38 427l6 8v8q-6 129 -45 129q-197 129 -197 258q0 156 204 298l-19 210l6 8l-6 8q49 48 70 48zM456 1292v-40q10 -44 140 -137l6 8l-19 298q-65 0 -127 -129zM698 873l38 -451h6q52 0 109 105
q0 190 -147 346h-6z" />
    <glyph glyph-name="percent" unicode="%" horiz-adv-x="1575" 
d="M1154 1854l33 -33l-11 -9l22 -16q0 -84 -22 -84l11 -8v-9l-185 -359l11 -8q-44 0 -142 -242q-250 -460 -512 -1044q-63 -42 -131 -42l-43 42l664 1361q88 171 164 384q80 67 141 67zM327 1303q152 -24 152 -159q0 -100 -142 -184l-65 -16h-76q-120 47 -120 108v59
q108 192 251 192zM1231 643q143 0 163 -167q0 -79 -174 -159l-66 -8h-76q-58 0 -109 150q74 184 262 184z" />
    <glyph glyph-name="ampersand" unicode="&#x26;" horiz-adv-x="1507" 
d="M474 1847q63 0 99 -152l138 -355q20 -12 197 -30q210 -47 210 -108l13 -26l-6 -5v-4l6 -22q-17 -104 -144 -208q-27 -8 -27 -26q0 -17 145 -30q0 -9 59 -9q276 -63 276 -203q0 -167 -401 -312l-20 -30l73 -260v-22q-14 -52 -53 -52h-6q-54 0 -79 156l-53 147l-39 13
q-133 -43 -408 -69h-33l-6 4l-7 -4h-65l-40 4l-20 -4v4l-6 -4q-164 11 -164 39v43q0 39 72 39q34 -17 151 -34l20 4v-4l6 4l33 -4h7l125 13v-5q335 54 335 91v9q-82 295 -112 346l-7 5h-19q-80 -11 -335 -87h-46q-33 10 -33 43v9q0 57 217 95q151 41 184 57l6 21
q-81 299 -112 299l-26 5q-174 0 -407 -122l-40 -26h-39l-33 22v35q0 29 197 108q127 48 302 69q20 16 20 31q-123 349 -177 441q0 42 72 61zM788 1226l-18 -20q57 -226 85 -226h12q157 94 157 182v4q-34 49 -236 60zM891 787q58 -231 103 -329l19 -5q102 12 297 156l32 58v4
q0 110 -413 138q-12 0 -38 -22z" />
    <glyph glyph-name="quotesingle" unicode="'" horiz-adv-x="391" 
d="M246 1526l55 -9q34 -5 12 -151l11 -2l-83 -400l-16 -185q-62 -160 -147 -147l-11 1q-25 4 -20 172l77 514q13 91 122 207z" />
    <glyph glyph-name="parenleft" unicode="(" horiz-adv-x="1742" 
d="M1225 1860q101 0 116 -94q0 -41 -165 -106q-302 -170 -302 -231q-175 -155 -175 -256q-65 -91 -117 -400l11 -100l-11 -50l20 -44h-9q29 -186 87 -275q26 -69 126 -181q272 -252 429 -294q0 -22 97 -50q0 -12 39 -12l19 -25h10q180 0 214 -107q-19 0 -29 -50l-88 -25
l-10 7h-9l-69 -7q-24 0 -418 169q-229 125 -320 219q-258 230 -302 400q0 37 -30 37l10 6v7l-10 6v6l10 6v7q-29 82 -29 162l10 6v7l-10 6v6l29 50l-29 44l19 37l-19 50q19 0 19 19l-9 38l19 50l-10 18q23 0 30 44l-10 19l88 237q103 202 311 382q0 47 156 106
q98 92 262 150z" />
    <glyph glyph-name="parenright" unicode=")" horiz-adv-x="1596" 
d="M210 1820h14q131 0 466 -118q396 -205 396 -279q155 -125 296 -406l57 -118l-15 -9v-8l57 -254l-14 -25l28 -110l-28 -68l14 -25l-42 -25l14 -9v-8l-14 -9l14 -8v-9q-232 -398 -777 -616q-41 0 -268 -85l-184 -51h-70l-99 43q0 82 282 110l311 110q326 166 452 320
q127 161 127 254v177l14 9l-28 34l14 8v9l-14 25l14 8v9l-28 25l14 34l-29 84h15q-198 497 -608 727q-217 88 -465 144l-29 25v17q0 68 113 68z" />
    <glyph glyph-name="asterisk" unicode="*" horiz-adv-x="722" 
d="M375 1813l16 -16l-8 -96l4 -4v-4l-4 -16l4 -20h-4l4 -4v-4l-4 -20l8 -92v-12l8 -8q33 17 168 180q8 0 8 16l48 24q28 -3 28 -20l-228 -256v-12l256 36q40 -6 40 -20q-26 -44 -100 -44l-152 -36l-4 4l-4 -4q70 -138 120 -204q-20 -48 -48 -48q-37 0 -116 160l-20 24
l-4 -48l4 -16l-4 -4l4 -20v-8l-4 -4l4 -4l-4 -40l4 -36q0 -27 -60 -52h-4q-20 16 -20 32v16l4 12l-4 20v52l4 4l-4 4v12l4 4l-4 4v40l-4 20h-4l-64 -80q-32 -60 -76 -80q-21 0 -32 20q18 36 136 180v8q-49 0 -224 -24q-30 8 -40 28v12q0 34 208 44q100 11 100 20v4
q0 38 -104 168q0 10 -60 92v4q13 44 44 44q33 0 84 -92q7 0 16 -24h8l8 8v4l-4 36l8 64l-4 32q17 40 64 40h4z" />
    <glyph glyph-name="plus" unicode="+" horiz-adv-x="1731" 
d="M1007 1393l10 -28v-9l1 -12l-1 -50v-9l-3 -9l-5 -53l-2 -34q-5 -22 -15 -54v-9l-4 -9l-4 -17l8 -44l-8 -80l-5 -35l-4 -36l9 -35h8l45 -2l63 -2l42 -5h24h26l79 1l54 -1h50h33q62 -1 167 -62v-8l4 -9l1 -9l3 -27v-35l-17 -18q0 -56 -233 -106l-28 3l-13 -2h-9l-8 2l-8 3
l-9 -3l-16 1l-9 2l-25 1l-16 2q-102 9 -127 15l-40 12l-58 9l-56 7l-7 -58l-3 -37l-6 -27l-2 -52l-3 -47l-6 -69l-5 -71l-1 -51l-10 -54l-12 -44l-21 -54l-105 -9l-133 27l-21 88l33 274l3 23l5 74v9l2 18l7 79v31l-56 12q-25 14 -102 19h-9l-10 2l-30 9q-179 24 -257 143
q-19 47 57 122q83 15 132 15q50 0 100 -12l25 -10l22 -9q19 -9 153 -48l18 -1l2 10l4 34v44v10l4 39q-3 7 13 261q0 27 3 33l2 6l4 14q7 13 15 22l24 31l34 24l74 32l55 -6l48 -21z" />
    <glyph glyph-name="comma" unicode="," horiz-adv-x="448" 
d="M200 292v-12h12v12q132 -40 132 -110l-12 -49l6 -18l-6 -7l12 -12v-12l-6 -31l12 -12v-12l-12 -25l6 -5v-6l-18 -62h12l-54 -214q-44 -128 -120 -128v6l-78 -13l-36 19q0 59 78 190l-6 18q16 0 24 80h6l-6 6v6l12 36v43l6 6l-6 7v6l6 18l-12 12l12 18l-12 31l6 43
q-8 0 -24 49h-6l6 6v6l-12 12q26 92 72 92z" />
    <glyph glyph-name="hyphen" unicode="-" horiz-adv-x="1140" 
d="M905 900h12q0 -12 23 -14l34 -43h-6l12 -39l-29 -29v-24q-65 -29 -98 -29l-17 -10l-23 10q0 -15 -12 -15l-11 10l-52 -10l-12 10l-17 -5v5l-29 -10v5l-6 -5h-51l-6 5l-6 -5h-6l-23 5l-17 -5l-17 5v-5l-6 5h-6l-17 -10l-35 10l-11 -10v5l-6 -5h-17l-6 5l-46 -9l-6 4v5
l-69 -14l-6 5v4l-52 -9q0 9 -46 9v5l-6 -5h-6l-63 49l6 5v5l-6 4v5q63 67 98 67q0 15 81 24l5 -4h6l29 4l23 -9l6 5h17l29 -5v9h6l17 -9l6 5h11l29 -5l18 14l23 -5l17 5v-5l29 10l5 -5v-5l47 10l17 -5l46 10l6 -5l104 20l5 -5v-5l64 14l17 -4v9z" />
    <glyph glyph-name="hyphen" unicode="&#xad;" horiz-adv-x="1140" 
d="M905 900h12q0 -12 23 -14l34 -43h-6l12 -39l-29 -29v-24q-65 -29 -98 -29l-17 -10l-23 10q0 -15 -12 -15l-11 10l-52 -10l-12 10l-17 -5v5l-29 -10v5l-6 -5h-51l-6 5l-6 -5h-6l-23 5l-17 -5l-17 5v-5l-6 5h-6l-17 -10l-35 10l-11 -10v5l-6 -5h-17l-6 5l-46 -9l-6 4v5
l-69 -14l-6 5v4l-52 -9q0 9 -46 9v5l-6 -5h-6l-63 49l6 5v5l-6 4v5q63 67 98 67q0 15 81 24l5 -4h6l29 4l23 -9l6 5h17l29 -5v9h6l17 -9l6 5h11l29 -5l18 14l23 -5l17 5v-5l29 10l5 -5v-5l47 10l17 -5l46 10l6 -5l104 20l5 -5v-5l64 14l17 -4v9z" />
    <glyph glyph-name="period" unicode="." horiz-adv-x="581" 
d="M239 251q28 -3 29 -3l3 -1h4q22 0 45 -13l14 -7l32 -23l19 -17l7 -12l5 -9l5 -6l7 -13l2 -7l2 -14v-4v-4v-8l-4 -20l-7 -17l-14 -15l-14 -19l-10 -7q-10 -9 -31 -16l-35 -6l-36 -2q-37 8 -80 46q-11 8 -26 26q-20 39 -23 79v4l1 4l-1 4l9 32l19 24q44 25 69 23z" />
    <glyph glyph-name="slash" unicode="/" horiz-adv-x="1360" 
d="M140 -357l-20 15l-27 29l-6 47l4 19l2 16l5 11l3 26l6 23l16 33q8 27 16 35l11 36l2 9l8 8l6 18q11 9 41 67l5 6l11 29q15 45 44 116q8 -2 12 35l16 16l74 137l-8 2l33 70l-6 11q16 -4 29 51l47 57l-6 11l2 9l162 301l8 -2l-6 11l2 9l22 24l-6 11l40 97q-24 6 -20 25l2 9
q28 20 122 310q12 -3 37 88l-6 11l20 15l3 48l19 44l2 48q35 150 274 126q58 -14 43 -108l-14 -25l5 -12l-2 -9l-10 -7l-2 -9v-39l-21 -15l6 -11q-26 -78 -47 -95l6 -11l-2 -10q-21 -16 -58 -141l-8 2l6 -11l-11 -46l-20 -15l6 -11l-2 -9l-62 -121l10 -32q-25 -62 -39 -58
l6 -11l-2 -9q-33 -60 -47 -57l-2 -48l-2 -9l-16 4l-7 -67l-20 -14l-3 -9l6 -12l-26 -42l6 -11l-21 -14l-2 -48q-14 3 -35 -40l8 -41q-16 4 -31 -61l-20 -14l1 -30q-35 -98 -46 -110l-11 -31l-9 -27v-12l-2 -7q-33 -118 -41 -116l-5 -9l-2 -9l-6 -38l-4 -8l-2 -9l-15 -55
l-12 -26l-2 -9l-25 -57l-80 -138l-55 -85l-47 -45l-68 -23q-105 9 -140 23z" />
    <glyph glyph-name="zero" unicode="0" horiz-adv-x="1498" 
d="M601 1719q0 11 15 11v12l-5 6v5h5q10 0 10 -17l41 17h30v12l5 -6h5l30 17l6 -5h4l16 11l20 -6l41 6v-6l5 6h5l21 -6l4 6h6q117 -24 117 -40l4 6h6q57 -21 116 -115q22 -12 122 -167q59 -40 122 -287l15 -46l-4 -6v-6l24 -126v-35l10 -52h-4q15 -40 15 -80l-5 -6l5 -6h5
l-5 -28v-58l5 -23l-5 -5v-6l5 -104l-5 -28l5 -18q-20 -208 -69 -327q-50 -151 -110 -243l-101 -112q-94 -79 -206 -128q-178 -46 -210 -46q-218 48 -218 81q-90 42 -132 109q-30 0 -107 149q-13 12 -35 75q-102 211 -102 408l-5 17l5 29l-5 6v5l5 6l-5 86v69l-5 23l5 17
l-5 18l5 5h5l-5 23l15 87l-4 5v6l20 81l-6 23l16 23l-6 5v12l6 6l-6 5v6l16 35l-6 17l31 63h5v6l-5 6v5q11 3 21 29l-6 17l6 -5h4q0 34 16 34l-5 6v17q29 0 46 63l20 12v5l-5 6l5 6v11l37 49l33 51q89 117 235 211zM363 1200l5 -23q-35 -63 -50 -196l-10 -34l5 -6v-6l-5 -5
v-6l5 -6v-6l-20 -97l5 -6v-6l-5 -5l5 -29v-12l-5 -5l5 -6v-6l-10 -23l5 -6v-11l-5 -6l5 -6v-5l-5 -6q10 -16 15 -121l-5 -6l5 -28v-41l10 -17l-5 -6v-5q32 -153 110 -305q96 -179 191 -218q25 -30 116 -63l59 -6q143 28 221 92q91 41 146 184q75 100 110 373l-10 40l5 29
l-5 58l5 34l-5 6v6l5 5l-9 104h4l-30 155l5 6v5q-55 311 -150 403q0 16 -46 63q0 13 -65 75q-57 38 -100 51l-5 -5h-5q-14 15 -51 23l-4 -6h-6l-14 6l-35 -6q-65 7 -65 23q-25 -4 -71 -46q-33 0 -120 -138q-69 -93 -126 -201z" />
    <glyph glyph-name="one" unicode="1" horiz-adv-x="767" 
d="M428 1850h4l5 -6l5 6h5q64 -28 64 -73l-5 -19l5 -6v-6l-30 -355l6 -25h-6l6 -6l-6 -31v-24l6 -86l-6 -18q4 -49 10 -49q-8 -110 -15 -110l5 -7v-6l-5 -98l11 -98l-11 -30l5 -6v-7l-5 -6v-6l5 -24l-5 -6v-7l5 -24l-5 -25l5 -6v-6l-14 -24l5 -6v-80l-5 -25l5 -24v-49l-5 -6
l5 -6l-5 -25l5 -30l-5 -31l5 -18l-5 -7h-6l6 -6v-6l-6 -6v-6l6 -18l-6 -25l6 -43h-6l11 -73l-11 -74l11 -97l-5 -6v-7l5 -18h-5l5 -6v-165q0 -43 9 -68l-5 -6l5 -31v-12q0 -61 -83 -86l-5 7h-5l-15 -7q-83 22 -83 74v12l5 25l-35 92l15 140l-10 73l10 25l-10 86l10 92
l-10 104l10 61l-10 24q4 37 10 37l-5 6l5 62l-5 55l5 24l-5 6v6l14 37l-9 25l9 12l-9 43h5l-5 6v6l5 37l-10 24l20 153l-6 31l6 6q-9 0 -15 37l9 31l-4 6h-5l9 43l-4 6l4 30v6l-4 7l4 6v43l-4 6v6h10v6l-10 18v6l10 13l-6 6v12h11v6l-5 19h9l-4 30l15 19l-6 30l6 19l-6 6
l6 6h4q-13 32 -19 110l15 55l-6 25l10 24l-4 74q44 98 44 122l29 31l5 -6q3 18 40 18z" />
    <glyph glyph-name="two" unicode="2" horiz-adv-x="1720" 
d="M709 1844l5 -7l26 7h15l5 -7l6 7h5l5 -7l5 7q120 -21 190 -76q51 -20 92 -82q0 -23 52 -78q9 0 9 -34q32 0 56 -89q16 0 36 -132h-5q12 -11 21 -165l6 -7v-7l-6 -6h-5q31 -95 31 -147l-10 -27l5 -7v-7l-11 -14l11 -27l-11 -55l6 -21q-61 -250 -155 -421q-13 -27 -35 -27
q0 -29 -21 -29q-90 -131 -246 -296l-107 -91q-5 -17 -78 -74l-25 -35l5 -41h31v-14l20 7l56 -7l43 14l4 -7v-7l61 20v-6l26 13l5 -7h5l16 14l26 -7l15 7l66 -14q24 9 26 28l16 -7l15 7l10 -14l20 7v-7l6 7h5l5 -7l5 7h21l4 -7l6 7h61l20 7l22 -14l5 7h4l47 -7l10 14l21 -7
l16 7v-7l5 7h9l6 -7l25 14v-7l5 7h6l5 -7h5l5 7h5l4 -7h7l14 7l16 -7l87 21v-14h6l9 14q72 -8 134 -104v-6l-5 -7l5 -21q-30 -71 -97 -110l-62 -41h-5l-6 7h-4l-47 -35l-21 14l-4 -7v-7l-6 7h-5l-16 -16q-44 21 -44 30l-6 -7h-6l-10 14l-21 -7l-19 7l-26 -7l-26 21l-4 -7
l-47 13l-16 -20l-67 27l-4 -7v-6l-5 6h-5l-16 -6l-61 13l-5 -7h-7q-65 6 -65 14l-6 -7h-16l-4 7h-5l-10 -14l-5 7h-6l-5 -7h-5l-5 7h-5l-26 -13v6l-36 -13v7l-41 -14l-10 14h-4l-22 -7l-25 13q0 -13 -16 -13l-15 7l-52 -14l-4 7l-12 -14h-4l-5 7h-5l-10 -14h-11l-5 7l-4 -7
h-6l-37 7l-9 -14l-21 14l-26 -7h-15l-4 7l-68 -14l-15 7l-4 -7h-7l-20 7l-36 -7l-5 7h-5l-51 -14q-144 46 -144 90v34q55 117 247 221q25 34 92 74q0 28 35 28q13 24 77 56l226 214q80 117 92 159q16 0 16 27q18 0 26 41q15 0 15 48q16 0 67 154l-6 20q19 0 46 158h6l-6 7v7
l27 138l-6 21q0 48 10 48l-10 84l6 7l-11 96h5q-32 203 -92 262q-87 97 -221 97q-70 -1 -143 -34l-5 7l-119 -77q-120 -91 -174 -269q-58 -82 -113 -82q-92 30 -92 109l21 50q11 0 149 241l60 63l6 -8h6q41 54 261 132q56 27 138 27v7z" />
    <glyph glyph-name="three" unicode="3" horiz-adv-x="1920" 
d="M958 1816q212 -38 230 -62h16v-7l9 7h8q230 -94 230 -246l-8 -31l8 -7q0 -151 -247 -424l-24 -38q32 -22 164 -39q220 -84 231 -161q34 0 65 -170v-15l-8 -31l8 -23q-53 -233 -115 -339q-58 -107 -288 -315q-228 -173 -526 -231q-38 0 -74 -23h-8l-9 8l-123 -23v8
l-99 -19l-33 3l-33 -8l-41 16l-9 18l14 -21l-21 11l-14 13l-24 6l-29 14l-19 6q-18 17 -57 26q-21 6 -55 28l-10 67q-10 -6 19 63l98 23q78 -15 132 -62l8 8h8q15 -15 83 -15l24 -16l33 8v-8q255 28 255 46l2 18l23 -7l52 12l51 28q164 71 335 189q15 48 82 90
q60 78 163 240l41 161l-17 62l9 7v8q-80 169 -272 169q0 14 -123 16q-65 -21 -320 -131q-98 -39 -215 -49q-73 13 -70 120q57 45 453 247q303 160 319 328l37 85q26 162 -194 211l-140 5l93 4q-39 -2 -205 -17l-56 -17l-79 -31q-72 -24 -201 -96q-99 -63 -188 -126
q-57 -49 -147 -56h-58l-41 39q73 105 321 284q20 0 172 93q175 40 214 61h99l8 -7z" />
    <glyph glyph-name="four" unicode="4" horiz-adv-x="1470" 
d="M942 1843q61 0 97 -272l-9 -12l19 -165h-10l10 -36q0 -291 29 -508h-9l29 -106l194 35q68 -41 68 -94q0 -154 -146 -154q-60 0 -107 -35l49 -520h-10l29 -177q-18 -154 -58 -154h-48q-49 0 -88 485l-29 342h-117q-60 -47 -427 -106q0 -16 -136 -59q-87 0 -87 319l-20 47
l10 12q-10 236 -49 425l10 12v12q-32 227 -68 284v82q18 83 107 83q56 -65 78 -236h-10l29 -95l-10 -12l20 -82h-10q27 -134 58 -579h39q61 32 505 118q0 23 59 23v12l-10 12v12l10 12l-39 543h9q-22 308 -58 390q0 67 88 130z" />
    <glyph glyph-name="five" unicode="5" horiz-adv-x="1438" 
d="M906 1786q55 0 55 -76q0 -102 -210 -130q-72 -33 -384 -87l-73 -33v-576l19 -21q294 184 593 206q172 0 319 -206q128 -180 128 -435v-65q0 -331 -392 -619q-170 -109 -420 -109h-110q-127 0 -301 229v21q9 130 91 130q27 0 128 -130q74 -79 192 -87q522 0 666 456l-9 55
v54l9 11l-9 11v54q0 219 -210 413l-119 32h-27q-267 0 -575 -239q-9 -32 -55 -32h-18q-37 17 -37 76v32l10 66l-10 54v11l10 11l-10 10v22l10 11l-10 11v98l10 76l-28 402q38 130 137 130q177 54 429 98z" />
    <glyph glyph-name="six" unicode="6" horiz-adv-x="1804" 
d="M491 1817q111 -15 111 -100l-11 -45l11 -10q-17 0 -60 -202l-11 -10l-9 -34h-11l11 -11v-11l-11 -11l11 -11v-12l-61 -255l11 -11l-20 -212v-11l-11 -11l11 -12v-55l-11 -55l50 -312h20q154 317 451 479l211 44v-11l9 11h20l11 -11l9 11q226 -65 301 -211
q70 -140 70 -368q0 -219 -120 -444q-159 -268 -441 -268h-50l-40 12l-10 -12q-206 0 -451 291q-120 0 -139 132l9 100q-110 306 -110 635l10 32l-10 12v11l10 34l-10 11v11q16 0 50 401l-10 11q40 6 40 100h10l-10 11v10q60 98 60 234h10l-10 12v11q37 63 110 100zM575 149
q209 -311 414 -295l47 3q266 20 320 223q34 112 23 329q-32 303 -132 295l-90 52l-106 -9q-139 -10 -372 -344z" />
    <glyph glyph-name="seven" unicode="7" horiz-adv-x="1480" 
d="M1228 1740h42q50 -35 50 -90v-21q-17 -17 -58 -281h-9l9 -10v-10q-42 -198 -75 -643l8 -10l-17 -111l9 -10v-10l-9 -10l9 -10l-9 -50v-161l-8 -10l8 -10l-8 -70v-30l8 -81l-8 -80v-20l8 -50l-8 -60v-10l8 -91l-8 -10v-10l8 -40q0 -20 -100 -131h-33q-50 0 -50 191h8
l-8 10l8 51v30l-8 50h8l-8 10l8 70v161l8 40l-8 10l8 50v221l9 10l-9 10l9 71v60l8 10l-8 10l16 111l-8 10l17 120l-9 10v10l50 352h-8l42 221l-25 -10l-42 10l-8 -10h-9l-8 10l-534 -101v10l-250 -50h-50q-27 0 -42 101q0 107 459 150l284 71l8 -10z" />
    <glyph glyph-name="eight" unicode="8" horiz-adv-x="1600" 
d="M783 1830q119 0 357 -187q134 -165 134 -373q0 -210 -164 -438q205 -33 290 -112q82 -117 82 -224l15 -140q0 -254 -327 -531q-21 0 -193 -121l-8 9h-7q0 -30 -275 -93l-82 -10q-82 10 -82 28l-7 -9q-69 28 -156 37q-160 105 -209 262q-29 0 -74 251v28h7l-7 28l7 9v10
l-7 9q11 166 193 457l60 65q-86 143 -112 392q0 93 104 401q117 187 216 187q158 65 245 65zM436 1273l6 -8l-6 -42v-41q30 -258 126 -291h31l25 8l25 -8h25l26 8q29 -25 93 -25h57q162 0 232 308l7 33q0 196 -120 291h-24l-20 -17h-13q-90 125 -150 125h-25
q-80 0 -214 -100q-45 -69 -81 -241zM677 626q-120 8 -213 36q-96 0 -185 -327l-7 -54q21 -208 100 -325q125 -172 284 -172h94q176 64 344 191q150 85 206 279l12 100q0 214 -126 289l-13 19l-20 -9l-6 9v8l-7 -8h-6q-47 0 -47 18l-7 -10l-33 10h-26l-26 -10l-27 10h-7
l-26 -10l-27 10h-6q-57 -21 -91 -42l-82 -4z" />
    <glyph glyph-name="nine" unicode="9" horiz-adv-x="1420" 
d="M1095 1752h64q55 -33 55 -86v-57l-9 -29l9 -48v-105l-9 -86l9 -48l-9 -9v-10l9 -28h-9l9 -10v-19l-9 -29l9 -38l-9 -95l9 -96h-9l9 -10v-76q0 -124 18 -172l-9 -38l9 -38l-9 -10v-10l9 -28h-9l9 -10v-296l10 -48h-10l10 -9v-10l-10 -9l10 -10v-238l9 -39l-9 -9v-10
l18 -133v-10q0 -27 -74 -38l-55 -58h-18q-44 0 -55 192l9 9l-9 29l-9 439v38l-10 38l10 38l-10 39l10 9v10l-10 105v29h-18q-81 -77 -322 -144l-156 -19q-266 0 -349 201q-46 122 -46 210v76q0 360 312 650q135 105 267 105q0 19 64 29l19 -19h36l157 -29zM332 978l9 -38
l-9 -10q32 -296 248 -296h9q119 10 156 29l10 -10h9q248 80 248 153l18 19v29l-9 48h9l-9 9v421l-9 38l9 28h-9l-64 -19q-20 0 -56 105q-47 48 -82 48h-83q-107 -3 -248 -143q-147 -210 -147 -411z" />
    <glyph glyph-name="colon" unicode=":" horiz-adv-x="660" 
d="M353 1200q101 0 109 -97l25 -35q0 -86 -183 -176q-244 33 -244 141q0 83 146 158zM401 426v-9l13 9h36q98 -20 98 -141l12 -62q-111 -99 -171 -123h-97q0 23 -61 26q-74 25 -110 88q0 157 256 212h24z" />
    <glyph glyph-name="semicolon" unicode=";" horiz-adv-x="778" 
d="M412 1314q144 0 144 -76v-47q0 -67 -158 -95q-96 19 -157 86v47q73 85 171 85zM490 727h79l52 -37q0 -105 -288 -464q0 -68 -144 -104q-144 28 -144 95q281 297 327 454z" />
    <glyph glyph-name="semicolon" unicode="&#x37e;" horiz-adv-x="778" 
d="M412 1314q144 0 144 -76v-47q0 -67 -158 -95q-96 19 -157 86v47q73 85 171 85zM490 727h79l52 -37q0 -105 -288 -464q0 -68 -144 -104q-144 28 -144 95q281 297 327 454z" />
    <glyph glyph-name="less" unicode="&#x3c;" horiz-adv-x="1660" 
d="M1272 1308h43q73 -51 73 -98q0 -38 -131 -155q-49 -55 -190 -156q-496 -372 -607 -482v-32q0 -25 307 -123q329 -131 651 -229q68 -31 102 -105v-8q0 -16 -37 -50l-80 17l-7 -8q-48 0 -760 269l-439 155q0 16 -22 16l-7 9v40q0 62 117 131q26 0 307 237q281 208 519 409
q33 22 102 138z" />
    <glyph glyph-name="equal" unicode="=" horiz-adv-x="1800" 
d="M1333 1230q40 0 131 -91q26 0 26 -77v-14q-63 -154 -176 -154l-32 14l-14 -28l-7 14v14l-6 -14h-7l-6 14l-6 -14h-59l-7 14l-6 -14h-45q-65 -2 -65 -25l-32 11l-85 -38l-7 14h-6q-150 -73 -470 -116h-91l-6 11l-26 -25q-156 25 -156 154v14q0 109 97 168l53 -25h85
l25 -13l19 13v-13l7 13h40l6 -13l208 52v-14l345 105l19 25h66l25 13l7 -13h6zM1437 660q123 -87 123 -189q-64 -96 -144 -138l-6 11l-64 -11h-157l-27 -14l-26 14l-182 -41l-6 14l-313 -63v12l-58 -25l-25 13l-8 -13h-7l-25 13l-26 -13l-6 13l-47 -13h-38l-6 13l-7 -13
h-118q-54 0 -104 89v51q19 114 117 114l59 13l59 -13l6 13h7l6 -13h6l92 25l6 -12l385 76v-13q106 38 390 75v-13z" />
    <glyph glyph-name="greater" unicode="&#x3e;" horiz-adv-x="1440" 
d="M343 1349q63 -119 93 -142q216 -205 471 -416q254 -242 278 -242q106 -70 106 -134v-41l-7 -9q-20 0 -20 -16l-397 -159q-646 -274 -689 -274l-7 8l-73 -17q-33 35 -33 51v8q30 75 93 108q292 100 590 233q278 100 278 125v33q-101 112 -550 492q-128 103 -172 159
q-120 119 -120 158q0 48 67 100h39z" />
    <glyph glyph-name="question" unicode="?" horiz-adv-x="1081" 
d="M612 1826q228 -29 289 -93q94 -122 94 -247l-7 -171l7 -23q-13 0 -13 -54q-82 -286 -115 -286q-25 -70 -248 -302q-71 -85 -108 -85h-13q-54 44 -54 85v31q0 97 101 131q150 128 255 310q45 72 74 278l-7 8v39l7 8q-22 178 -134 178q0 17 -175 23q-161 -56 -269 -217
q-24 -27 -26 -70q-34 -54 -81 -54q-47 37 -47 109q54 133 168 240q165 147 269 147v-8zM554 282q83 0 98 -137v-16q-17 -76 -43 -113l-6 8l-13 -16h-30q-80 46 -80 201q0 49 74 73z" />
    <glyph glyph-name="at" unicode="@" horiz-adv-x="2040" 
d="M558 1152h10q0 16 89 74v2l24 16l5 -5q0 9 20 9q0 8 3 13l18 11q8 2 18 2l-5 4v2l14 9l1 -2h10l15 13q0 3 -1 5l15 9q5 -3 11 -5q78 15 78 26l55 17l5 -4l29 17h20l192 35l30 -9l39 5q159 0 335 -70q101 -68 148 -156q30 0 64 -178h-5l5 -5q-11 -104 -39 -160
q-64 -104 -153 -135l-74 -22l-15 5l-29 -9h-40q-95 0 -197 91l-25 4q-156 -215 -340 -269l-98 -13q-153 29 -153 52q-31 0 -64 91q0 108 44 148q0 24 79 91q67 64 168 113q67 35 197 61h29q152 -5 193 -91q0 -17 24 -65q70 -108 133 -131q25 -17 50 -17q110 0 177 148l-5 4
v4l10 27l-5 13l10 8v39q-22 149 -64 200q-15 0 -15 26q-133 117 -237 117q-59 14 -108 14h-35q-155 0 -384 -105q-114 -66 -192 -134q-99 -107 -99 -118q-21 -11 -44 -74q-37 -47 -49 -104q-14 -20 -30 -139q0 -113 20 -160h-5l29 -83q68 -125 163 -213q110 -82 133 -82
q0 -20 202 -57v-4l5 4h30l19 -4l15 4v-4q126 26 227 104l59 91l25 18h34l59 -52q-23 -63 -167 -144q-15 0 -35 -17l-143 -48l-5 4l-49 -4h-5q-181 0 -261 39q-188 54 -296 183q0 9 -93 117l-20 52h10v9q-69 70 -69 113l-10 8l5 22v22l-5 43l15 13l-10 9v13l5 4l-5 5
q0 80 74 243q0 11 44 69q14 40 40 57v8l-5 5v4l49 44l-5 4v4q0 12 59 44v8q-9 0 -14 3l11 7zM711 673q43 -76 122 -59q121 25 237 145l-2 5q29 7 45 76q19 20 13 41l-19 18l-8 34l-58 -4q-134 -35 -246 -126q-96 -84 -84 -130z" />
    <glyph glyph-name="A" unicode="A" horiz-adv-x="1595" 
d="M900 1854q90 0 204 -400q110 -303 143 -303l164 -20l41 10h31q55 0 81 -48v-20q-39 -59 -112 -59l-164 10v-10l307 -761v-19q-55 -69 -112 -69q-73 0 -92 146l-297 713l-133 10l-122 -10l-124 -878l11 -11v-9q0 -127 -154 -127q-40 10 -40 39l143 967l-31 9
q-203 0 -583 -78q-45 0 -61 59h20v19l-10 10v10l10 9h11l10 -9q0 49 153 49l31 29l10 -10h10l450 49q71 384 103 664zM910 1444l-51 -293h174l-113 293h-10z" />
    <glyph glyph-name="B" unicode="B" horiz-adv-x="1915" 
d="M164 1848q81 0 128 -413l-10 -11h40q338 349 793 349q207 0 307 -190v-52q0 -169 -238 -351l10 -11h20q443 0 575 -233l30 -159q0 -214 -456 -434q-234 -84 -546 -116v10l-10 -10h-228l-168 10v-10l10 -159q-60 -64 -99 -64q-70 0 -70 53q0 529 -128 1442l10 73l-10 -11
h-10l10 54v10l-10 -10h-10l-10 10v22h20v10q0 22 -30 22v10l10 11v11l-20 21v41q32 75 90 75zM364 1271q14 -200 37 -200l594 158q274 114 274 251q0 104 -207 133q-319 0 -642 -267zM427 827l26 -392q45 -42 383 -42q307 0 627 175q113 82 113 167v8q0 191 -392 234l-8 -8
l-61 8q-168 0 -679 -150h-9z" />
    <glyph glyph-name="C" unicode="C" horiz-adv-x="1358" 
d="M712 1853h48q227 0 348 -245q35 -106 35 -142v-7q-28 -40 -63 -40h-27q-31 0 -91 166q-9 19 -21 39l-14 10l-19 15l-13 13q-39 35 -141 73l-19 -1l-16 1l-63 -16l-39 -18q-130 -60 -259 -330q-58 -90 -128 -317l-2 -9l-3 -11q-6 -31 -5 -182q27 -592 353 -697l80 -15
l52 -3q256 67 453 271l33 33l24 13l22 -2l27 -9q25 -19 25 -57q-47 -142 -278 -277q-176 -102 -313 -102v-8l-35 8h-42q-92 0 -201 55q-58 0 -181 158q-108 156 -132 347l-7 8v8h7q-14 18 -42 284l7 31l-7 8l14 95l-7 8v8l14 79l-7 23h14l-7 32q12 77 104 315v16
q29 0 84 119l55 63q143 134 313 173l7 8l7 -8h7l28 8l7 -8z" />
    <glyph glyph-name="D" unicode="D" horiz-adv-x="1545" 
d="M633 1854v-7l7 7q197 -14 392 -78q0 -12 48 -29l7 7q0 -20 62 -50l7 7q2 -18 138 -120q164 -200 164 -377l7 -7v-7h-7q14 -23 21 -178q0 -226 -337 -711q-348 -266 -623 -306l-202 -6l-142 9q-78 11 -78 104v99l-7 36h7l-7 7v7l7 7l-7 7v78l-7 29l7 28v57l-7 22l7 35v85
l-7 36h7l-7 7v50l7 7l-7 7v7l7 7l-7 7v256l-6 71h6l-6 8v92l-8 29l8 21l-8 7l8 36v56l-8 50h8l-8 7l8 36v14h-8l8 36v21l-8 64l8 7v7q-28 126 -35 235q0 21 41 43l76 -8l89 8v-8q109 22 330 22h7zM449 1676q-186 0 -186 -32l6 -19h-6l6 -7v-20l12 -155v-39l-6 -71l6 -6
l-6 -32v-142l6 -26l-6 -45v-479l6 -26l-6 -25v-148l6 -208q15 -18 62 -18l10 1l9 -1q365 0 639 226q96 99 211 361q75 160 75 232q-25 328 -75 368q-42 124 -236 233q0 9 -124 52l-6 -6q-65 19 -260 38l-50 -6h-12l-6 6l-7 -6h-62z" />
    <glyph glyph-name="E" unicode="E" horiz-adv-x="1529" 
d="M733 1856q323 -15 323 -78q0 -54 -100 -86q-196 43 -401 43l-31 -8v8l-23 -8q-285 0 -285 -52l15 -69l-7 -9l23 -172l-8 -9v-8l15 -95l-7 -9v-9l15 -86l-8 -8v-9l16 -164v-34l15 -18l224 9q0 17 239 35q54 -37 54 -78q-57 -69 -131 -69v9l-8 -9h-46l-332 -35l16 -155h-8
q33 -312 85 -509q365 87 640 87l23 8v-8l8 8h162l185 9q69 -22 69 -78q-30 -77 -162 -77h-139l-31 -9l-7 9l-77 -9h-77q-259 0 -679 -103v-9q-69 0 -69 86q-47 190 -108 940l7 9l-23 190l8 8v9l-54 509l85 60q231 43 594 43z" />
    <glyph glyph-name="F" unicode="F" horiz-adv-x="1132" 
d="M974 1853q76 -24 76 -89q-59 -54 -91 -54v9l-23 -9l-7 9h-8l-30 -9v9q-173 -36 -493 -134l-129 -54q0 -17 -23 -17v-108l8 -9l-8 -8v-54l8 -9l-8 -9v-9l8 -9l-8 -9v-27l8 -26l-8 -27l8 -232l8 -27q305 89 417 89l45 -53v-45q0 -45 -281 -72q-164 -53 -174 -71v-18l8 -62
h-8l23 -152h-8l46 -349h-8q23 -59 23 -134q-35 -80 -91 -80h-38q-35 115 -61 357h8l-38 259v81l-15 169v18l7 36q-18 34 -30 134l8 9v9l-8 9v9l8 53l-8 36l8 36l-8 27l8 9v8l-8 9v9l8 27h-8l8 9v9l-15 36l7 27l-15 53l8 45l-8 36q18 116 83 116l8 9h8v8h-16l-7 -8v17l30 9
l8 -9v-9l45 18l8 -9h7l84 27v-9q191 72 477 143q0 27 167 27z" />
    <glyph glyph-name="G" unicode="G" horiz-adv-x="1538" 
d="M814 1853h19q308 0 379 -182v-37q-28 -46 -59 -46q-89 0 -106 64q-149 82 -253 82h-19q-161 0 -388 -292q-156 -269 -156 -565q0 -567 379 -712q78 -27 165 -27h10q273 0 359 283q136 289 136 584l-10 118l-563 -36l-49 64l127 82l611 36q68 -40 68 -191v-28
q0 -324 -155 -693q-208 -356 -534 -356q-419 0 -650 429q-68 225 -78 319h10l-10 9l10 64v46q7 264 48 264l-9 46q35 229 242 438q192 201 311 201q0 21 165 36z" />
    <glyph glyph-name="H" unicode="H" horiz-adv-x="2027" 
d="M1362 1853q36 0 60 -140l-7 -7v-8l20 -101h-6l26 -147l-6 -8l19 -62l-6 -8q6 -93 20 -109l-7 -7v-8l20 -39l120 23l20 -7l219 15v-8l7 8l27 -8l39 8l47 -62q0 -57 -86 -85l-34 8l-346 -8l-13 -31l7 -31l-7 -8v-8l20 -155h-7q54 -475 113 -706q-40 -62 -93 -62l-20 8
l-6 -8q-53 103 -93 434q-15 161 -27 179l7 8v7q-14 28 -34 350l-26 7q-293 -15 -526 -54v8q-40 -16 -40 -31v-24l7 -54l-7 -8l14 -15l-7 -23l33 -357l-6 -8v-8l26 -178h-6l26 -241q-41 -85 -113 -85q-25 0 -46 326l-7 8l7 7l-47 505h7l-20 85l6 31q0 39 -13 39l-86 -16v8
l-233 -47v8l-233 -46l-20 69v24l53 38h33l80 16l7 -8v16h7l6 -8l27 16l7 -8q68 9 79 23h14l6 -8l60 16v-8l87 23l6 -7h7l60 15v-8q26 0 26 39h7q-33 283 -47 318l7 8q-8 85 -20 85l7 39l-13 47l6 7l-13 16l7 8q0 23 -27 23q17 64 33 77v16h7l6 -8h7q0 31 60 31l-7 8v8l7 7
h13q0 -25 34 -69l26 -140l-6 -8l6 -7h7l-7 -39v-24l13 -15l-6 -8v-31l6 -31l-6 -8l33 -240l-7 -47v-15l14 -16h20l119 16v-8l7 8h7l6 -8l87 23v-7l7 7h6l7 -7h6l67 23l53 -8l100 23l7 -7h6l73 15l-6 8v8l6 7v8l-33 217l-6 8l6 8v8q-11 0 -20 54l14 31l-7 8h-7l7 7
q-10 64 -27 86l7 23l-7 8v8l7 7l-7 39v8l7 8l-7 7v24q0 15 34 15q0 39 66 39z" />
    <glyph glyph-name="I" unicode="I" horiz-adv-x="1420" 
d="M1020 1853h6q0 -22 43 -71v-27q-32 -71 -111 -71l-37 9l-80 -9v9l-6 -9h-6l-50 9l-61 -17l-7 8q0 -17 -18 -17q3 -98 12 -98l-6 -26q19 -424 37 -559l-6 -9v-9l25 -160h-7q33 -468 68 -612l25 -9h136l24 9l19 -9h12v9l50 -9l215 9q33 0 56 -53v-36q0 -42 -111 -62l-25 9
q-449 -9 -802 -53l-6 9h-6l-25 -9q-80 7 -80 18l-6 -9h-6q-93 17 -93 71v35q23 0 56 62l160 -35l25 9v-9l6 9h49q119 0 179 18l-31 328h6l-18 142h6l-31 292h6l-12 71h6l-6 9v89l-12 18l6 9v8q0 76 -12 116l6 9l-13 97h7l-19 222h-12v18h12v9q0 64 -37 79l-6 -8v-9l-31 9
l-6 -9h-6l-6 9l-44 -9h-6l-55 17l-7 -8h-6l-31 8l-24 -8l-6 8l-118 -17v-18l-12 18l-18 -9l-56 35v27h25l-19 35v18l6 9v9l7 -9h6q27 0 37 53l18 -17l6 8h7l30 -8l19 8l18 -8l31 17l13 -17l12 17h6l12 -17l44 8h18l37 -8l25 8l6 -8h6l37 8l19 -17h6l86 9l6 -9h7l86 17
l12 -17l25 9l6 -9h6l56 17l12 -17h37l13 17l6 -8q148 12 148 35z" />
    <glyph glyph-name="J" unicode="J" horiz-adv-x="1200" 
d="M1020 1850h8q65 -10 65 -42l-36 -237l7 -28l-7 -7h7l-7 -7v-90l-7 -7l7 -7v-91l-7 -7l7 -7v-7l-7 -21l7 -34v-77l7 -35h-7l7 -7v-21l37 -376l-8 -21l8 -77l-8 -7v-7l15 -97l-7 -21l7 -42v-63l-7 -7l7 -7q0 -233 -336 -327q-213 -70 -395 -70h-73l-109 7v49l65 69l125 -7
h29l7 -6l7 6h8l7 -6q237 20 424 97q88 46 88 188q-8 346 -22 398l7 7l-37 404h8l-8 7v118l8 7l-8 7v258l8 7l-8 42h-7q-132 -97 -621 -237l-132 -14h-14q-38 0 -66 21l15 35l-15 14l44 14h22q122 0 475 132v-7q292 123 343 195q0 17 73 49z" />
    <glyph glyph-name="K" unicode="K" horiz-adv-x="1613" 
d="M148 1856h41q59 0 82 -201l-10 -9v-9l20 -110h-10l10 -9v-18l-10 -9l10 -9v-46l-10 -9l10 -9v-46l11 -91h-11l11 -10v-9l-11 -36l11 -82v-64q520 356 748 539l82 18q56 0 82 -46v-9q-814 -612 -851 -612q16 -41 492 -246l698 -348l10 -36q0 -55 -113 -55q-82 0 -574 256
l-564 256l-10 -10v-27l10 -55l-10 -27l10 -55h-10l10 -9v-27q0 -151 51 -521v-9q0 -32 -113 -55q-61 0 -71 91l10 37v18q-59 0 -82 831h10l-10 9v28l10 55l-10 27h10l-10 9v228l-10 101l10 9l-31 237q15 174 82 174z" />
    <glyph glyph-name="L" unicode="L" horiz-adv-x="1560" 
d="M145 1853l71 -26l-9 -8l36 -94l-9 -9v-8l9 -26l-9 -8l18 -18v-8l-9 -9l9 -8v-9l-9 -8v-9l9 -8h9l-9 -43q6 -43 26 -43l-8 -8v-52l8 -34l-8 -25l17 -180l-9 -8l9 -9h9l-9 -43v-17l9 -34l-9 -8l18 -111l-9 -43l9 -86h-9l9 -8v-43l-9 -8l9 -9v-26l-9 -25l9 -43v-214
q0 -72 18 -111l-9 -8l45 -231h44l578 60v-9l9 9h151l312 -9q53 -44 53 -76q-20 -52 -89 -52l-249 26l-27 -9l-35 9l-9 -9h-9l-9 9l-44 -9h-9l-9 9l-676 -77v9l-9 -9h-71q-47 0 -107 316l9 9l-18 196v34l-18 26h9l9 -9h9l-9 43v94q0 217 -18 265l18 43l-9 51l9 9l-27 119h9
l-9 9v68l-9 43h9l-17 162l8 9v8l-8 26l8 8l-8 9l8 8l-8 9h-9l9 26l-18 102h9l-9 60l-9 -9h-9v9l9 8l-9 9q12 94 80 94z" />
    <glyph glyph-name="M" unicode="M" horiz-adv-x="1708" 
d="M79 1304l-19 44l10 11l-19 123q66 100 151 156q103 0 169 -256q19 0 19 -56q35 0 103 -167l-9 -11q40 0 66 -79q186 -289 263 -289q87 0 207 401l29 22l-10 45l38 145l-10 11v11q12 114 29 134l-10 134q0 72 122 167q83 -59 85 -78h-9l19 -45l-10 -33v-11h10v22h9
q85 -270 151 -591l-10 -11q21 0 47 -89l-9 -34l47 -167v-100l19 -34l-10 -11v-11l57 -212l-10 -11q17 0 47 -145l38 -78q0 -103 -122 -145q-104 25 -104 100l10 34l-19 22l9 11q-37 0 -94 379l-19 45l10 11q-38 254 -132 580h-19q-66 -268 -103 -268l9 -11v-11
q-158 -346 -376 -346v11l-10 -11h-9q-64 0 -132 67q-160 179 -179 257q-26 0 -47 55h-28l19 -189h-10l94 -680q-44 -123 -141 -123l-28 33l-9 -11h-10l-103 736l9 67h-9l9 11l-66 457h-9v-30l-5 40q6 2 14 2z" />
    <glyph glyph-name="N" unicode="N" horiz-adv-x="1486" 
d="M1134 1853q57 0 89 -113l-10 -12v-13l20 -87l-10 -13q30 -363 69 -576l-10 -13v-12l50 -238h-10l20 -113l-10 -13q24 0 69 -325l30 -113l-109 -100q-80 0 -317 275q-70 38 -536 689q0 28 -148 238l-10 -37l10 -13v-12l-10 -13v-12l10 -13l-10 -50l10 -88h-10
q20 -72 29 -288l-9 -50l9 -37h-9l29 -151l-10 -12l50 -451q-35 -54 -99 -88h-50q-66 0 -109 764q-13 0 -30 201h10l-29 162l10 13v12l-50 376q0 96 139 251h39q140 -144 298 -464q193 -294 476 -651q0 -25 49 -50l109 -125l20 25l-99 689l10 37l-60 476v25z" />
    <glyph glyph-name="O" unicode="O" horiz-adv-x="1197" 
d="M538 1853q105 -50 216 -62q193 -173 273 -349l57 -186l-12 -13q45 0 80 -410l-11 -13v-12l11 -62l-11 -13v-12l11 -50l-11 -13h-12l12 -12v-12l-12 -13l12 -12v-13q-96 -305 -341 -473q0 -34 -250 -124l-12 12h-11l-11 -12h-12q-262 0 -398 299l-45 199h11l-11 12v125
l11 398h12l-12 12q0 165 69 349l-12 12v25q72 210 216 311q93 90 193 112zM230 1194l13 -13v-12l-25 -87l12 -50l-12 -13l12 -12l-12 -62v-299q0 -418 257 -498h37q161 0 368 212q61 100 61 137l49 99v212l-12 62l24 25q-33 53 -73 299h12l-12 12v12l12 50q-27 11 -98 187
q-194 233 -331 249q-181 0 -257 -423q0 -87 -25 -87z" />
    <glyph glyph-name="P" unicode="P" horiz-adv-x="1352" 
d="M593 1847l8 -9l43 9h102q235 0 453 -256q103 -220 103 -299q0 -276 -410 -564h-43q0 -31 -68 -53l8 -44h-8q85 -364 111 -564q-73 -71 -94 -71l-69 35q-42 80 -77 406l-34 141l-85 -18l-52 53l9 9l-9 9v8q67 106 103 106l-9 44h9l-60 265h9l-111 537v18l17 71
q-137 -48 -274 -150l-51 -27h-34q-43 22 -43 88q214 200 556 256zM541 1706v-18q45 0 120 -476l85 -387q192 67 317 264l51 123h17v9l9 71q0 207 -231 379q-49 26 -197 53l-8 -9l-43 9z" />
    <glyph glyph-name="Q" unicode="Q" horiz-adv-x="1752" 
d="M776 1854q194 0 296 -159v-57l-10 -11l152 -273l51 -205h-10l20 -68h-10l21 -68v-114q0 -122 -61 -364q129 -169 448 -363l20 -35v-22q-13 -34 -92 -69h-30q-61 0 -428 296h-10q-25 0 -82 -91q-170 -201 -407 -250v11l-10 -11q-371 0 -479 432q-23 169 -71 330
q0 428 204 784q252 307 488 307zM267 933l10 -11v-12l-10 -56l21 -160h-11q51 -329 184 -477q73 -50 193 -68q132 0 296 170q61 56 61 114q0 42 -224 227q-61 57 -61 103q46 68 71 68q79 -24 275 -193h20q24 0 51 204l-10 12v22l10 57q0 211 -163 512q-163 162 -163 261
l-91 46q-176 -40 -214 -114q-109 -95 -173 -284q-51 -157 -72 -421z" />
    <glyph glyph-name="R" unicode="R" horiz-adv-x="1636" 
d="M865 1854v-11l9 11h9q201 -49 201 -179l-9 -11v-10l9 -32q-46 -245 -128 -358q-70 -220 -374 -442l593 -347q292 -135 292 -221v-11q-22 -63 -128 -63q-25 0 -246 147l-684 379l-9 -10v-137l9 -42l-9 -42v-42l9 -64l-9 -10v-11l36 -273q-83 -74 -127 -74h-10
q-56 0 -100 432h9q-73 670 -100 758l9 10l-73 495q58 63 91 63q100 0 119 -221v-10h-9l27 -95l-9 -11l27 -200q28 0 46 137q94 215 155 295q118 126 146 126q101 74 228 74zM418 949l27 -11q120 0 292 221q28 95 146 305l-9 11v11q37 82 37 136v21q0 95 -83 95
q-228 0 -374 -526z" />
    <glyph glyph-name="S" unicode="S" horiz-adv-x="1524" 
d="M965 1847q262 0 439 -353q0 -34 -116 -53q-82 38 -208 224q-84 64 -162 64q-69 -13 -69 -96q0 -50 266 -566q104 -201 104 -524q0 -421 -312 -524l-139 -21q-172 0 -370 182q-277 409 -277 630q-24 0 -58 246q0 46 92 96h47q49 -6 69 -171l-11 -10q7 -234 208 -599
q166 -214 312 -214q137 0 185 118l46 278l-12 32l12 43l-46 267h11q0 66 -289 620l-23 107v10q0 214 301 214z" />
    <glyph glyph-name="T" unicode="T" horiz-adv-x="1580" 
d="M936 1109q12 0 19 -91h-9l88 -757h-10l39 -194v-12q0 -28 -117 -57q-84 0 -108 378l-20 115l10 11v12q-88 959 -127 1122l61 52l83 15q56 -32 91 -594zM769 1633v12h-39q-151 0 -606 -149h-40l-29 34q0 201 1165 310l9 -12l186 23h10l49 -57l-10 -12l10 -11v-23
q0 -40 -274 -57l-10 11h-10l-342 -46v-11q3 0 7 -2l-83 -16z" />
    <glyph glyph-name="U" unicode="U" horiz-adv-x="1402" 
d="M1043 1851q68 0 84 -304l-8 -12v-12q54 -614 154 -1346l8 -106q-45 -70 -85 -70q-56 0 -84 82l7 47l-15 117h8q-69 416 -108 890l-8 11v12h8l-8 35h-15l-100 -386q-22 -28 -77 -211q-11 0 -69 -164l-146 -269q-116 -133 -216 -164q-139 0 -238 199h-8v59l-23 117l8 11
l-8 59q0 58 15 58l-7 12l15 164v70l8 47l-8 12l8 58v36l-8 58q22 0 62 679v106l69 82q52 -21 69 -82q-10 -432 -31 -434l8 -11l-54 -726l8 -12v-59q0 -237 54 -281q0 -26 92 -35l85 82q207 368 423 1206q39 305 54 305z" />
    <glyph glyph-name="V" unicode="V" horiz-adv-x="1697" 
d="M1472 1850h9l49 -56v-34l-10 -11l10 -11v-11q-301 -593 -592 -1515q0 -213 -88 -213h-68q-50 17 -135 258q-78 157 -224 583q-165 382 -349 640l-10 33v12q34 67 97 67q147 -152 301 -449l330 -774h10q87 166 155 426q46 57 243 595q144 294 155 415z" />
    <glyph glyph-name="W" unicode="W" horiz-adv-x="1878" 
d="M1603 1853q62 -15 62 -80q-30 -96 -31 -183l8 -39l-8 -8l8 -40v-24l-8 -8l16 -95h-8l8 -8v-24q23 -310 39 -350l-8 -8q32 -186 32 -335v-31l7 -32l-7 -8v-8l7 -8v-8l-7 -32l7 -95l-7 -32l7 -72v-63l24 -160q-45 -39 -79 -39h-62q-59 0 -338 501l-251 430
q-115 191 -134 191q-110 -601 -141 -884l-8 -71l8 -8l-16 -80l8 -8v-47l-8 -8l8 -8v-8q-50 -64 -118 -64q-105 0 -181 382h8q-165 901 -338 1186q-31 27 -31 63v8q0 37 94 64h16q66 0 228 -414q70 -207 180 -724h8q40 115 55 239l8 8l-8 8v8l40 127l-8 8v8l31 95l-8 8v8
l16 48l-8 8v8l63 207l-8 8v16q64 74 102 95h8q65 -32 102 -95l369 -621l157 -255q16 0 16 -24l8 -8h8v343l-8 31l8 32l-8 8v8l8 8v8l-24 88l8 8v8l-8 31l8 8q-17 0 -23 88l7 8v8l-7 32l7 8q-23 55 -23 103l8 8v8q-16 40 -16 119h8q-24 39 -24 199q0 152 71 183z" />
    <glyph glyph-name="X" unicode="X" horiz-adv-x="1500" 
d="M122 1856h9q99 0 339 -400q192 -266 208 -266h18l113 240l130 248q108 80 139 80q50 0 78 -89l-61 -106l-52 -98l-234 -471v-18l503 -755q70 -102 70 -142v-9q0 -71 -87 -71q-108 0 -252 267q-14 40 -252 391q-46 106 -78 106q-70 -102 -191 -506l9 -9v-9l-35 -62l8 -27
q-64 -53 -104 -53h-35q-57 0 -95 80l208 568l96 205v17q0 44 -313 480q-106 180 -217 320v18z" />
    <glyph glyph-name="Y" unicode="Y" horiz-adv-x="1328" 
d="M868 1850q45 0 74 -235q52 -165 119 -636q59 -141 89 -554h-7l7 -7v-15l-7 -8l7 -8q0 -244 -200 -325q-68 -61 -149 -61q-74 0 -74 61q30 62 148 106q119 65 119 242l-7 31l7 7v8l-7 45v8l7 7l-22 122h7l-37 174h8l-38 151l-7 8v8l7 7l-37 167l8 23l-82 394h-44
l-149 -250l-193 -372q-28 -60 -74 -60h-52q-69 0 -111 348q-45 195 -52 288l-30 91l7 8v7l-7 31q68 53 104 53h7q41 0 82 -197l-7 -8q49 -326 74 -326q20 0 133 190q99 170 164 250q100 227 193 227h22z" />
    <glyph glyph-name="Z" unicode="Z" horiz-adv-x="1851" 
d="M809 1853l86 -18l9 9h8l69 -9l43 9l8 -9h9l129 18q34 -54 34 -99q-86 -183 -86 -225l-240 -656q-112 -267 -112 -360l-94 -278l25 -36h61l34 9l8 -9q134 36 224 36l34 -9l9 9h8l52 -9l8 9h9l9 -9h8l35 9l25 -9l9 9l60 -9h155l77 -9q54 18 163 18l26 -45q0 -66 -52 -144
q-179 27 -455 36l-103 -9v9l-112 -18v9l-8 -9h-43q-59 0 -129 -27l-9 9h-8l-223 -45h-18q-73 0 -111 54v9q17 98 300 944q162 361 232 629q17 0 17 36t-94 45l-9 -9l-25 9l-155 -18l-9 9h-8l-533 -54q-120 0 -120 72q74 54 103 54v-9q24 18 112 27v-9l335 54l43 -9h8l35 9
l8 -9h9l8 9h9l9 -9h8z" />
    <glyph glyph-name="bracketleft" unicode="[" horiz-adv-x="1165" 
d="M101 1457l6 -1l-13 46l10 20q7 139 -9 164l11 27l1 7l-3 1l25 82l161 1l14 -2v2l172 3l6 -9l6 -1l5 10h11l10 -15l13 -2q24 18 61 11q0 3 -1 7l56 1q3 -2 5 -5l5 5h28v-3l3 3l12 -1l4 -6l6 -1l8 6l6 -1l6 -9l6 -1l30 13l12 1l5 -8l8 6l25 -5l25 -12l6 -1l1 7l-12 3l1 11
l12 -1l33 -11l7 6l-4 6h18l-1 -9l6 -1q16 -3 20 11h13l12 -19l8 6l51 -10l46 -1q82 -69 76 -110l10 -24q-12 -27 -39 -37l-32 6l-37 15l-28 -10l-56 25l-144 5l-18 10q-3 -19 -193 -8q-2 -14 -107 -10l-15 -12l-5 9l-129 -21l-31 -31l4 -22l-10 -21l-4 -117l-7 2l6 -9l-1 -7
l-8 -6l2 -74l-7 -6l-1 -7l3 -23l-8 -6l-13 -269l-3 -22l-11 -27l1 -126l-6 2v-133l-7 1l-7 -403l-8 -6l-4 -117l-7 -6q16 -3 11 -61l-7 1l5 -8l-1 -7l-7 -6l-1 -7l6 -46l-7 -6l-1 -7l5 -8l-1 -7l-12 -34q23 -27 3 -163l-8 -50l1 -37q128 6 169 28l18 -11q2 11 90 28l6 -9
l6 -1q207 28 440 29l18 -11q51 20 75 16l-1 -7l7 6l20 -4q58 -55 51 -98q-7 -28 -155 -22l-5 8l-7 1l-67 -9l-6 8l-6 1l-53 -5l-6 9l-6 1q-2 -15 -55 -12l-5 8l-7 1q-38 -15 -121 -14l-5 8q-5 -10 -257 -41l-161 -65l-46 1l-50 24h-39q-21 4 -13 90l10 21l-4 22l7 -1
q-9 17 0 133l-7 1l10 20l17 247l6 -2l-8 76l7 6l6 352l7 -2l-6 9l1 7l8 6q-12 54 -4 104l6 -1q-8 76 0 397l9 20l6 185z" />
    <glyph glyph-name="backslash" unicode="\" horiz-adv-x="1102" 
d="M852 -381l-61 23l-42 45l-49 85l-71 138l-23 57l-1 9l-11 26l-14 55l-1 9l-4 8l-5 38l-2 9l-5 9q-7 -2 -36 116l-2 7v12l-8 27l-10 31q-10 12 -41 110l1 30l-18 14q-13 65 -28 61l7 41q-18 43 -31 40l-2 48l-18 14l5 11l-23 42l5 12l-3 9l-17 14l-7 67l-14 -4l-2 9l-2 48
q-12 -3 -42 57l-1 9l5 11q-13 -4 -35 58l9 32l-55 121l-2 9l5 11l-18 15l-10 46l6 11l-7 -2q-33 125 -52 141l-2 10l5 11q-18 17 -42 95l6 11l-19 15v39l-2 9l-9 7l-2 9l5 12l-13 25q-13 94 39 108q214 24 245 -126l2 -48l17 -44l2 -48l18 -15l-5 -11q22 -91 33 -88
q84 -290 109 -310l2 -9q3 -19 -18 -25l36 -97l-6 -11l20 -24l2 -9l-6 -11l7 2l145 -301l2 -9l-5 -11l42 -57q11 -55 26 -51l-6 -11l30 -70l-7 -2l66 -137l14 -16q4 -37 11 -35q26 -71 39 -116l10 -29l4 -6q27 -58 37 -67l5 -18l8 -8l1 -9l10 -36q7 -8 15 -35l14 -33l5 -23
l3 -26l4 -11l2 -16l4 -19l-6 -47l-24 -29l-18 -15q-31 -14 -125 -23z" />
    <glyph glyph-name="bracketright" unicode="]" horiz-adv-x="1222" 
d="M1106 1265l6 -179l10 -19q9 -310 0 -385l7 2q7 -49 -5 -101l8 -6l1 -6l-6 -8l7 1l6 -341l8 -5l-9 -73l7 1l17 -238l10 -20l-6 -1q9 -112 0 -128l6 1l-3 -22l10 -19q8 -84 -13 -88h-41l-51 -23l-48 -1l-166 63q-260 30 -265 40l-6 -8q-84 -1 -124 14l-7 -2l-5 -8
q-54 -2 -57 12l-6 -1l-6 -8l-55 4l-7 -1l-5 -8l-70 9l-6 -1l-6 -8q-152 -5 -160 22q-6 42 53 95l20 3l8 -5l-1 6q25 5 77 -15l19 11q240 -1 453 -28l7 1l5 8q92 -16 93 -27l19 11q42 -21 174 -27l1 36l-7 48q-21 132 2 157l-12 33l-1 7l5 8l-1 7l-7 6l6 44l-1 7l-8 5l-1 7
l6 8l-7 -1q-5 56 11 59l-7 6l-5 113l-8 6l-7 390l-7 -2v128l-6 -1l1 121l-11 27l-3 21l-14 260l-8 6l3 22l-1 7l-8 6l3 71l-8 6l-1 7l5 8l-6 -1l-5 113l-10 20l4 22l-32 30l-133 19l-5 -8l-16 12q-108 -5 -110 9q-196 -11 -199 8l-18 -10l-149 -5l-58 -24l-29 9l-38 -13
l-33 -6q-27 9 -40 36l10 23q-6 40 78 106l48 1l53 9l8 -6l12 19h14q3 -13 20 -11l7 2l-2 8h19l-4 -6l8 -6l33 11l12 1l2 -11l-13 -2l1 -7l6 1l26 12l26 4l8 -6l6 9l12 -2l31 -12l6 1l6 8l6 1l8 -6l7 1l4 6l12 1l4 -3l-1 3h29l6 -4q1 2 4 4l58 -1q-1 -3 0 -7q38 7 63 -10
l13 2l9 14h12l5 -9l7 1l5 8l178 -3v-2l15 3l165 -2l26 -79h-3l1 -7l11 -27q-16 -24 -9 -158l10 -20l-13 -45l7 2z" />
    <glyph glyph-name="asciicircum" unicode="^" horiz-adv-x="1280" 
d="M634 1760q153 0 205 -148q0 -43 98 -173q0 -44 163 -252v-35q-31 -52 -74 -52q-187 0 -187 104l-188 278h-9q-191 -142 -261 -295q-25 0 -25 -26q-57 -44 -106 -44q-87 15 -106 35q0 104 90 165q0 26 49 52q0 17 278 287q20 69 57 69z" />
    <glyph glyph-name="underscore" unicode="_" horiz-adv-x="960" 
d="M218 148l24 -4l4 4l20 -4h132l24 4l36 -8l60 8l40 -4h12l4 -4l4 4h24l44 -4l4 4h4l60 -8l4 4h4l4 -4h4l12 4v-4l4 4l20 -4h4l84 -4l48 4q38 0 52 -36l4 -32q-8 -32 -16 -32l-8 8l-4 -4l-20 4l-40 -8h-4l-32 8h-92l-16 4l-4 -4l-16 4q-192 4 -192 12l-24 -4l-56 4l-4 -4
l-28 4h-40l-36 -4l-4 4h-4l-4 -4l-20 4h-8l-12 -4l-68 8l-28 -4v4l-4 -4h-4l-20 4l-40 -8l-4 4h-4l-92 -12l-4 4h-4l-4 -4h-4q-48 4 -48 24v4q0 38 64 60l16 -4l164 12l20 -4z" />
    <glyph glyph-name="grave" unicode="`" horiz-adv-x="682" 
d="M123 1560l46 18q27 10 85 -82l9 3l141 -261l82 -112q35 -116 -35 -142l-10 -4q-20 -7 -101 91l-203 323q-36 58 -14 166z" />
    <glyph glyph-name="a" unicode="a" horiz-adv-x="1477" 
d="M442 1724v-6l6 6h78l6 -6l7 6h6q234 -40 234 -68q99 -35 272 -242q156 -237 156 -349q13 0 58 -209q39 -116 52 -220l-6 -22l13 -23l-7 -5q13 -55 13 -153v-39q0 -95 -13 -95l7 -6v-56l6 -57h-6q10 -56 19 -56q0 -70 -78 -96q-44 -23 -78 -23h-13q-51 0 -51 192l13 158
l-7 28h7l-7 6l7 28l-7 95h7l-7 6v28q-22 231 -71 231q-22 -98 -182 -282q-166 -174 -240 -174q-83 -28 -201 -39q-103 0 -194 101q-33 58 -52 191q26 211 194 434q203 231 402 231q0 12 91 17q0 14 26 17q-55 150 -272 293q-110 51 -221 51l-19 -6v6l-234 -51q-34 0 -45 23
q0 87 214 118zM370 648l7 -6l-7 -45q30 -186 98 -186l13 -11q158 0 363 281l97 282l-7 6v5q20 36 33 136q0 33 -117 33q-187 0 -324 -186q-105 -115 -156 -309z" />
    <glyph glyph-name="b" unicode="b" horiz-adv-x="1453" 
d="M117 1849q40 0 68 -45l-6 -40q0 -115 11 -175l-5 -5l15 -119l-5 -6l5 -29l-5 -16l5 -29v-56l5 -28h-5q11 -16 16 -147h-5l5 -5v-58l6 -27h-6l6 -6v-17l20 -271v-18h21q58 165 231 277l110 40v-5q44 21 110 34l6 -7l26 7h68l5 5q145 -26 215 -101q28 -46 37 -46v-5l-6 -7
q26 -62 37 -158q-11 -159 -48 -243q-66 -145 -199 -208q-108 -90 -299 -186q-289 -125 -382 -148q-31 12 -31 45v7l5 39l-5 50v40q0 86 -11 136l5 5v6l-15 152h4l-26 220h6q-11 31 -11 120v34l-4 27h4l-4 6v102l-6 23l6 5l-11 113h5l-5 6v5l-11 154l5 5v6l-5 5v6l5 5
q-15 118 -15 198h5l-10 56l5 7l-5 28v11q0 113 -11 147q13 79 74 79zM290 244v-62q0 -8 20 -17q157 49 315 147l184 135q131 98 131 272v11l5 6q-28 155 -84 215q-25 0 -78 28l-6 -6l-26 6q-296 0 -394 -356q-26 -81 -67 -379z" />
    <glyph glyph-name="c" unicode="c" horiz-adv-x="1560" 
d="M687 1629h5q0 -22 81 -22v-5l17 5q155 -48 196 -102v-11q-24 -80 -92 -80h-52q-71 58 -213 80l-6 -5h-5l-29 5q-186 -29 -248 -107q-60 -60 -63 -97q-18 0 -52 -135l6 -5v-5l-29 -124l6 -22l-12 -10l6 -38l-6 -6v-5l6 -21h-6l6 -6q-4 -48 -12 -48l12 -97h-6
q29 -196 69 -339q56 -156 173 -226q140 -59 207 -59l6 5l23 -5l29 5l34 -5q188 17 450 204q0 10 80 75l29 76l-11 64l75 92h23q80 0 86 -113q-24 -135 -276 -328q-287 -200 -519 -200l-6 -5q-276 0 -437 161q-46 57 -58 60l-6 -6l-11 16l11 11l-17 22v-11q-20 0 -35 102l6 6
q-36 0 -69 242l6 16l-12 11v5l6 5l-11 27l5 33l-5 21l5 6v5q-11 24 -11 70l6 113l-6 16l6 5h-12v11q12 0 12 27l5 6l-5 5q3 38 11 38l-6 5v5q20 97 29 97l-6 6v10l6 6v5l-6 6q8 0 35 75l-6 16l17 16l-5 6v5q28 39 28 65q21 0 41 43h6l-6 5v11q17 0 17 16q24 6 81 59l-6 5
l6 6h5l6 -6h6q0 22 29 22l46 38v-6q90 48 236 76l6 -6h57z" />
    <glyph glyph-name="d" unicode="d" horiz-adv-x="1340" 
d="M912 1842h44q69 0 69 -352l26 -397l-8 -26l8 -9v-9l-8 -8l43 -458l-9 -9q35 -312 35 -458q-45 -97 -104 -97h-26q-24 0 -35 79l9 9l-26 238h-18q-197 -185 -373 -185h-35q-183 0 -356 255l-26 106v35q0 244 191 564q134 134 261 158l95 -8h26l9 -9l9 9h8l157 -36v62
l-9 35l9 9l-35 405q15 59 69 97zM270 644q0 -237 191 -317l69 -26h44q143 0 312 211l35 62l-35 387h9q0 96 -104 132q-169 36 -243 36q-177 0 -278 -485z" />
    <glyph glyph-name="e" unicode="e" horiz-adv-x="1760" 
d="M156 1746q80 0 80 -79q77 -307 147 -362h30q39 20 86 109q194 190 300 205l92 24l6 -6h6l55 12l31 -6h43q198 0 287 -229l13 -109q0 -166 -227 -332q-105 -37 -196 -37h-73l-43 -6v6l-6 -6h-12l-7 6l-6 -6l-49 6l-6 -6h-6q-91 0 -233 85h-36q-33 0 -80 -266l6 -48l-6 -6
q0 -101 86 -333q68 -145 263 -229q139 -36 202 -36h6l31 6v-6q281 56 281 97q23 0 184 168l24 7h7q51 0 73 -79v-6q-183 -193 -233 -193q0 -31 -385 -85h-37l-6 7l-6 -7q-192 0 -422 164q-141 141 -141 211q-68 126 -68 290v96l7 6l-7 6l13 55l-6 6v6q23 119 85 278l6 24
q-160 224 -183 356l-37 182v18q25 42 67 42zM505 1178q0 -59 159 -127q37 -24 104 -24h31l6 -6l6 6h12q258 0 319 205l12 73q-41 199 -92 199q0 20 -92 31q-264 0 -465 -357z" />
    <glyph glyph-name="f" unicode="f" horiz-adv-x="1005" 
d="M637 1850l7 -10h6l27 10l26 -19l20 9l40 -19h20v-19l-7 -9v-10l27 -19l7 10l33 -48v29h13v-10l-6 -9l33 -95v-10h6l7 10h7l13 -38h-7l7 -29q-7 -57 -20 -57l7 -9v-38h-14v19h-13q-18 -25 -106 -38l6 9v10l-26 28l6 10v9h-19v10l6 9v10q-25 0 -46 47q-27 0 -27 38l-73 29
l-13 -19l-7 9h-7l-20 -9l-6 9q0 -28 -27 -28v-19h14v-10q-24 0 -34 -104l7 -10l-13 -85l6 -10v-9l-6 -48l13 -133l-7 -9l14 -19q-14 0 -20 -76h13l27 9l26 -9q75 19 100 47l93 -47q0 -75 -73 -162l-7 10h-7q-53 -10 -53 -29l-20 10l-53 -38l-26 9l6 -38l-6 -9l26 -342h-6
l6 -10v-9q0 -140 27 -323q-17 -143 -127 -143q-19 48 -33 247h7l-7 10v9l7 10q-11 14 -27 323l-20 161h7l-20 48l7 9q-30 48 -60 48l-13 -19l-20 9l-40 -19l-7 10v-19q-33 0 -33 19l-20 -19l-20 9l-73 -9l-20 57q0 95 53 123h27l6 -9h7q0 19 20 19l20 -10q0 19 20 19l20 -9
l53 28v-19h13l33 10l7 -10l13 29v28l-6 48l6 9h7l-7 48l7 38l-7 28l7 105l-7 9v10l54 275l-7 10l73 114h47v9l-7 10v9l7 10h13v-29z" />
    <glyph glyph-name="g" unicode="g" horiz-adv-x="1320" 
d="M962 1765h23q54 0 94 -57l6 -149v-5l-6 -6l12 -51h-6l12 -69l-6 -17l6 -17l-6 -51l6 -24l-6 -17l6 -21l-6 -24l6 -17l-6 -46l6 -17l-6 -23l6 -22l-6 -6l6 -34l11 -325l6 -17h-6l6 -6v-28l6 -70h-6l6 -4v-92l-6 -23l6 -23v-11l-6 -6l6 -6l-6 -57v-22l6 -81l-6 -6l6 -28
v-17l-6 -34l6 -6l-6 -28v-52q0 -68 -12 -68l6 -5l-17 -75l6 -5v-5q-61 -190 -235 -297q-128 -85 -181 -85v5q-31 -22 -147 -41v7l-5 -7h-18l-35 7l-6 -7h-6q-124 14 -140 24l-18 -5l-23 28l-18 -6l-23 17l-6 -5h-6l-6 5h-6l-6 -5q-50 31 -64 85q0 28 18 28l-6 6v17
q4 14 64 51q58 -14 176 -79l6 5h5q39 -22 88 -22l6 5h6l35 -11h6q160 0 293 114q69 54 111 154q23 125 23 330h6l-6 5v115l6 6l-6 6v17l6 17l-6 28v68l-5 29h5l-5 5v53l-6 34l6 17q0 37 -30 57h-11q-133 -63 -194 -63l-46 -7v7l-53 -11q-192 0 -281 114q-84 74 -117 187
l-18 109h6l-12 23l6 28v23l-6 29l18 11l-6 6v5l18 53h5l-5 4v7q100 178 187 245q175 139 281 148l18 6v-6l46 12l106 -29h6q35 0 35 34l-6 6v6q0 21 41 51zM423 1228l6 -5l-12 -97q0 -106 59 -206q85 -125 158 -125l6 6h6l29 -6q80 12 164 46q105 88 105 234h6l-6 6l6 56v23
l-6 23l6 6l-6 28v6l6 5l-6 6v92l-6 68h6l-6 6l6 28l-6 6v6l6 6q0 101 -117 136l-47 7q-82 -16 -251 -166q-49 -66 -106 -195z" />
    <glyph glyph-name="h" unicode="h" horiz-adv-x="1280" 
d="M108 1824q75 -15 75 -65l-7 -10v-9l7 -56l-7 -10l7 -9v-37l-7 -10l7 -9v-9l-7 -47l7 -66h-7l7 -9v-28l-7 -9l7 -10l-7 -140v-374h7q186 288 388 355l95 28l7 -9l61 9q190 0 286 -308q20 -82 20 -187v-309l-7 -37l7 -28h-7l7 -10v-9l-7 -93l7 -10l-7 -47l7 -112
q-59 -93 -95 -93q-55 0 -55 93l7 56l-7 10q14 179 14 626q-34 188 -109 253q-40 46 -122 46q-242 0 -388 -299q-89 -257 -95 -458v-84l-7 -9l7 -10l-7 -56l7 -93q-22 -81 -82 -122h-41q-20 0 -27 178q12 261 20 261l-6 10l6 47l-6 37l6 9l-13 159l7 28l-7 10l7 65v28l-7 47
h7l-7 9v290l7 56l-7 47l7 9l-7 10v9l7 56l-7 10v9l7 75l-7 28l7 37l-14 168q18 69 68 122z" />
    <glyph glyph-name="i" unicode="i" horiz-adv-x="540" 
d="M245 1713h15q37 0 71 -56v-9q-21 -120 -114 -120q-52 0 -57 46q0 61 85 139zM244 1273q50 -31 50 -102l-7 -9l14 -148l-7 -10l7 -46v-9l-7 -37l7 -37l-7 -10v-9l7 -37l-7 -28l7 -46v-167l7 -37l-7 -37l7 -47l-7 -9v-9l7 -56v-37l-7 -9l7 -9v-28l7 -186l-85 -83h-36l-7 9
h-7l-8 -9l-7 9v74l-7 38l7 27l-7 10l7 46l-7 306l7 9v9l-7 38v120l-7 37l7 9l-7 93v102l7 9l-7 10v9l7 185l-7 28q38 74 93 74z" />
    <glyph glyph-name="j" unicode="j" horiz-adv-x="790" 
d="M396 1790q75 -33 75 -77q0 -52 -61 -84q0 -14 -48 -14l-13 -15h-7q-63 28 -75 57q0 56 102 126l7 7h20zM478 1215l34 -64l27 -175h14v-7l-7 -8l7 -20l-7 -8l14 -91h-7l34 -196h-7l27 -169h-7l48 -343l-7 -7v-8l7 -111l-7 -27l7 -8v-7q0 -189 -218 -308q-267 -86 -347 -86
q-12 50 -27 50q56 126 75 126h41l6 -6q286 52 286 140l7 56l-7 7l7 36l-14 89l7 28l-7 29l7 7l-27 189l7 7l-34 260l7 7v7l-21 56l7 6q-20 194 -68 429v8q20 64 82 112h61z" />
    <glyph glyph-name="k" unicode="k" horiz-adv-x="978" 
d="M126 1710h18q61 0 61 -138l13 -284l6 -8v-7l-6 -31l6 -69l-6 -8v-7l6 -8v-8l-6 -7l6 -54v-77l-6 -8l6 -38h12q162 121 347 353q70 100 110 100q32 0 61 -54v-31q-158 -236 -305 -353q-88 -72 -177 -168v-16q70 -57 244 -161q170 -135 366 -245l30 -46v-39
q-50 -69 -97 -69q-54 0 -287 169q-127 98 -292 199l-12 -15l6 -23l-6 -61l6 -23h-6l6 -8v-8l-6 -30l6 -23l-6 -8v-8l6 -23h-6l6 -7v-23l-6 -46l6 -31h-6l6 -8v-130q0 -94 -104 -123q-32 0 -55 23l6 115v177l-6 69l6 7l-6 54v215l-6 107l12 69l-6 8v100l-6 30l6 8v8l-6 7v8
l6 8l-6 53v8l6 69l-6 23h6l-6 8v92l-6 38h6l-6 8v15l6 23l-18 223q0 75 79 138z" />
    <glyph glyph-name="l" unicode="l" horiz-adv-x="535" 
d="M158 1684q104 0 104 -190l48 -214l-8 -8v-8l16 -56h-8l33 -253h-8l32 -270l-8 -8l8 -40v-87l8 -39h-8l16 -72h-8l16 -79h-8l8 -8v-79l8 -56h-8l16 -47v-48q-44 -111 -137 -111h-8q-20 0 -40 79l8 56l-8 119l8 39l-8 32l8 8l-16 143h8l-24 127l8 8l-24 277h8l-49 357h8
l-80 317q42 111 89 111z" />
    <glyph glyph-name="m" unicode="m" horiz-adv-x="1564" 
d="M177 1620h45q34 -17 68 -112q23 0 167 -469q114 -290 182 -290q158 0 289 446q58 124 98 302l61 112q114 0 114 -224q144 -719 212 -1217q-25 -92 -99 -134h-53q-24 7 -53 301l-144 805h-7q-120 -347 -266 -537l-152 -78v11l-7 -11h-53q-148 0 -243 291h-15v-12l7 -111
h-7l7 -11v-112l8 -45l-8 -11l16 -369q-57 -145 -107 -145q-53 0 -53 101v178l-7 45l7 11v11l-68 1106v23q0 70 61 145z" />
    <glyph glyph-name="n" unicode="n" horiz-adv-x="1319" 
d="M1001 1696h7q37 0 77 -75l8 -377l7 -12h8l-8 -188v-214l-7 -12l7 -13v-37l-7 -13l7 -12v-63l-7 -50l7 -13v-12q-33 -477 -160 -477l-8 -13q-42 0 -291 339q-99 109 -306 552h-8l-7 -13v-200l-8 -13l8 -12v-113l7 -50l-7 -13v-12l15 -452q-56 -104 -77 -113h-7
q-59 0 -69 50v25q0 187 -84 1205v62l-8 63h8l-8 13v87q42 114 61 126h16q38 0 68 -63l39 13q68 0 222 -452l214 -401q180 -276 207 -276l30 125v251l16 25l-23 464h7l-46 163q0 80 100 201z" />
    <glyph glyph-name="o" unicode="o" horiz-adv-x="1225" 
d="M805 1748q95 0 241 -307q29 -121 51 -373q0 -258 -117 -680q-126 -155 -255 -274q-114 -99 -306 -99q-87 14 -190 175q0 40 -51 110l-44 220h8l-37 252h8l-8 11v142l-7 44q119 535 270 680q46 44 146 77h73l102 -55h14q64 77 102 77zM587 1518l-22 22q-178 0 -248 -297
q-51 -204 -51 -372v-11l14 -143h-7l29 -154h-7q57 -362 189 -362q143 0 350 231q22 30 73 241l-7 11v11l37 208l-8 11l15 99l-15 22v11l8 66q-37 231 -132 362q-63 116 -116 120q-69 -76 -102 -76z" />
    <glyph glyph-name="p" unicode="p" horiz-adv-x="1270" 
d="M653 1718q340 0 401 -135q62 -36 110 -199l8 -52l-8 -10l8 -73q0 -279 -205 -667q-128 -183 -236 -250l-7 -31l15 -146l-8 -11v-10l24 -104h-8l16 -146h-8q16 -27 24 -198l-95 -115q-94 0 -94 219q-29 427 -47 427q-49 0 -71 52v11q0 31 63 166l-24 251v73l-8 41l8 11
q-23 494 -63 594q-10 73 -23 73q-81 -10 -236 -146q-30 -52 -95 -52l-39 62q0 66 165 188q147 104 236 125v-11q28 32 197 63zM621 1489v-21l16 -136l-8 -10v-10l47 -480h-7q20 -302 47 -302h15q135 99 252 531l-8 32q24 0 24 104l-8 62l8 42q-27 149 -71 167q0 17 -126 73
h-55l-47 10l-8 -10h-8l-8 10h-7q-48 0 -48 -62z" />
    <glyph glyph-name="q" unicode="q" horiz-adv-x="1228" 
d="M558 1703l19 -10l6 10l158 -61q29 0 69 -101l-32 -263l7 -11v-10l-13 -91v-71l-6 -10l6 -10v-142l-6 -10l6 -10v-10l-6 -61l6 -132h-6l6 -30l6 -344l7 -11v-10l-7 -10l7 -50v-193q33 0 107 172q15 2 144 213l26 20q54 0 75 -81q-9 -66 -88 -131q-212 -339 -239 -517
q-57 -152 -120 -152v11l-6 -11h-12l-38 61l12 183v121l7 10l-7 10v213l-6 50h6l-6 10v11l6 10l-6 30l6 41l-12 50l6 41l-6 30h6l-6 10v122l-13 294h-12q-151 -187 -271 -233l-31 10h-19l-25 -10q-164 78 -164 182q-17 0 -25 142q26 275 208 547q116 172 251 172zM200 1004
q0 -160 82 -192q182 0 314 304q50 138 50 354v10q-72 41 -157 41q-118 0 -245 -314z" />
    <glyph glyph-name="r" unicode="r" horiz-adv-x="1112" 
d="M124 1771q59 -30 59 -101l52 -514h6q138 379 307 436h6q52 0 104 -157v-22l-6 -11l13 -213q-13 -30 -20 -167q-42 -214 -156 -314l-78 -33v-22q260 -280 384 -280h39l26 11l7 -11h6q35 0 85 67h26q32 -24 52 -101q0 -104 -195 -156v11l-7 -11h-6q-194 0 -404 212
q-151 157 -170 157h-6v-78l13 -392q-42 -67 -78 -67q-65 0 -65 145l-13 660l-7 135l7 33l-7 45h7l-7 11v112l7 11l-46 503v12q20 52 65 89zM280 843l7 -12h85q143 48 143 157q19 71 19 336v11l-13 78h-26q-115 -104 -215 -548v-22z" />
    <glyph glyph-name="s" unicode="s" horiz-adv-x="1024" 
d="M675 1763q97 -10 212 -175l55 -134v-61q0 -19 -55 -62h-55q-30 4 -70 144q-69 123 -134 123q-30 -46 -31 -92q0 -99 188 -566l39 -278l-7 -10v-10l15 -52q0 -378 -211 -535q-80 -51 -149 -51q-129 0 -259 288q-45 165 -94 267q-16 87 -16 227q0 179 78 267h16
q55 0 86 -103q-31 -78 -31 -216q0 -244 172 -524l87 -31q127 0 164 298l-7 10v11l7 31l-15 144l8 10q0 149 -189 607q-39 131 -39 226q80 247 235 247z" />
    <glyph glyph-name="t" unicode="t" horiz-adv-x="893" 
d="M428 1850l51 -55q16 -77 23 -255h-6q0 -94 35 -133h34l52 -11l57 11h58q44 0 63 -89v-44q-15 -47 -52 -78h-17l-6 11l-5 -11h-23l-52 11l-6 -11h-6l-5 11l-29 -11l-17 11l-17 -11v11q-29 -14 -29 -33l40 -532l-6 -11v-11l6 -11v-11l-6 -33l29 -399v-44q-37 -111 -86 -111
q-58 30 -58 133h6l-6 11l6 55v178l-11 232h5l-11 100l6 11q-23 306 -46 432l-23 22l-276 -110l-40 44v44q37 144 155 144q42 31 144 44l5 12q23 0 23 44l-17 199h6q-17 54 -17 144q49 100 69 100z" />
    <glyph glyph-name="u" unicode="u" 
d="M783 1730q89 -81 89 -370l30 -150l-15 -23q13 0 52 -301l-7 -11v-12l119 -739q-35 -116 -127 -116q-70 0 -97 381l-59 405l-8 11h-7q-119 -453 -224 -612q-103 -133 -231 -162q-60 23 -60 46l-7 -11h-8q-67 66 -67 138h8q-13 0 -30 313h7l-7 11v23l7 12l-15 138l15 47
l-15 46l8 69l-8 70l8 11l-8 81v46l8 70l-15 34l7 58v23l-7 185q12 57 75 139q59 0 96 -104v-220l8 -46l-15 -104l7 -12v-69l-7 -12l15 -92h-8l8 -12v-46l-8 -46l8 -12v-34h-8l8 -81v-35l-8 -58l8 -11h7l-7 -12v-57q10 -252 45 -266h7q112 0 254 497q67 369 74 508l-7 12v11
l7 70l-7 46l7 11v12l-7 12v11l7 12v11l-15 93q47 173 120 173z" />
    <glyph glyph-name="v" unicode="v" horiz-adv-x="1081" 
d="M905 1718q54 0 86 -132q0 -35 -59 -161q0 -37 -14 -37l7 -10v-19q-23 0 -46 -151l6 -9q-34 -7 -85 -302h-7l7 -10v-9l-20 -57l6 -9v-10l-13 -47l7 -9v-10l-13 -37l6 -10q-9 -75 -19 -75l6 -10l-6 -47l6 -9v-10q-26 -123 -33 -255l-6 -9h6l-13 -38l7 -9v-10l-7 -38l7 -28
h-7q0 -90 -132 -132h-7q-59 80 -79 227l-33 94l7 9q-16 0 -53 161h-13q0 35 -40 123q0 34 -33 75q-36 139 -66 170l7 9q-132 308 -165 491q27 0 53 85q20 0 20 19l19 -9l27 9h6v-9h-13v-10q42 0 79 -141l66 -189l-6 -10l39 -75l-6 -10v-9q26 0 26 -66l40 -57v-9l-7 -10
l92 -217l7 -9h-7q14 -59 33 -66q33 0 33 141q14 0 14 76l-7 9l26 66l-6 48l13 37l-7 10v9q33 51 47 170l33 94l-7 10v9l59 199l-6 9q14 5 59 151q28 60 79 85z" />
    <glyph glyph-name="w" unicode="w" horiz-adv-x="1590" 
d="M1419 1718q45 0 65 -73l-8 -10l8 -10v-21l-40 -187l8 -10v-10l-16 -73l8 -52q-31 -98 -41 -228l8 -10v-11l-32 -114l8 -10h8l-8 -31l8 -31q-16 0 -16 -73h-8l8 -10v-11l-8 -10l8 -10v-11l-24 -72l8 -52l-24 -31l8 -11q-6 -83 -17 -83l9 -10v-10l-17 -42l8 -135
q0 -41 -16 -41l8 -11v-10q-40 -73 -80 -73h-25q-79 0 -121 166l-97 249l-154 332q-29 52 -56 52q-34 0 -97 -218l-8 -41l-33 -42l9 -10v-11q-71 -179 -89 -269h-17l9 -11v-10l-73 -238q-36 -73 -138 -73q-24 41 -40 135l8 41l-16 94l8 31l-8 10h-8l8 10v73l-16 31l16 21
l-16 52l8 31l-16 21l8 41l-49 259l8 31q-17 23 -56 270l-8 10l8 11v10l-49 176l8 11l-32 62h8l-8 31q43 93 89 93q77 0 105 -176l-8 -10q12 0 32 -114h-8l97 -519v-83q16 -24 16 -72l41 -21v10l8 -10h16v31q162 506 162 560q36 93 48 93q22 0 73 63q71 0 202 -363
q141 -303 186 -311v-21l32 31l-8 31h8l-8 10v11l16 31v10l-8 42l41 197h8l-8 31l16 155l-8 11v10q11 73 24 73l-8 31l8 10v11l-8 10v10q8 128 24 145l-8 11q0 207 89 207l8 -10z" />
    <glyph glyph-name="x" unicode="x" horiz-adv-x="1024" 
d="M144 1669h16q61 0 145 -254q160 -367 237 -485q147 440 183 606q44 85 84 85h8l31 -49q0 -67 -237 -775v-12l290 -534v-48q-31 -73 -76 -73h-23l-260 473q-72 -169 -184 -558q-45 -48 -84 -48h-15l-15 24v12q0 57 229 703v12q-191 337 -374 812l-8 36z" />
    <glyph glyph-name="y" unicode="y" horiz-adv-x="1085" 
d="M651 1688h28l35 -33v-65l8 -32l-8 -8l163 -1024q42 -439 42 -593v-32q0 -201 -141 -285q0 -27 -99 -49h-14l-14 17v24q43 71 106 98q49 23 56 219l-7 8v8l7 8v9q-56 684 -155 1186l-49 300q-268 -442 -388 -715q-38 -32 -64 -32h-21l-28 32v73l7 8l-7 8l7 49l7 374
l-14 179l63 65h22q35 0 35 -187v-195l-7 -8l7 -8v-17l-7 -8l7 -8l-7 -40v-74l395 715z" />
    <glyph glyph-name="z" unicode="z" horiz-adv-x="1108" 
d="M656 1741h55q41 -47 41 -93q-41 -89 -205 -767q-154 -518 -192 -721h7q246 46 397 46h68l41 -11l7 11h7q75 -12 75 -104v-12q0 -35 -55 -46l-137 23h-41q-137 0 -465 -70h-13l-35 12l267 1011q110 425 137 581h-7q-392 -81 -499 -81l-7 35q0 93 212 93q111 46 219 46
l14 24h27l7 -12z" />
    <glyph glyph-name="braceleft" unicode="{" horiz-adv-x="684" 
d="M446 1511q36 0 69 -23l-5 -15l10 -38l-74 -61l5 -3q-43 -26 -90 -107q-42 -85 -42 -129l5 -15l-5 -4v-4q14 -152 132 -315q43 -30 43 -61q0 -29 -111 -87q-123 -48 -149 -72v-8q0 -12 223 -167q16 -14 16 -34v-11q-69 -144 -69 -194l-6 -80q0 -219 202 -421
q37 -24 37 -42v-7q-17 -22 -37 -31h-27q-229 199 -254 444l-5 38l5 4v4l-5 4l5 19v30q0 65 58 216v4l-275 205l-11 23q0 45 101 72l175 95v4q-143 230 -143 346l5 15l-5 11l5 27l-5 3v4q44 167 95 224l53 65l42 49l-5 12h5z" />
    <glyph glyph-name="bar" unicode="|" horiz-adv-x="532" 
d="M344 1516q38 -3 16 -222l24 -383l-9 -5l-1 -5l-1 -377l-9 1l-5 -247l-10 -5l-1 -5q26 -322 29 -620q-42 -84 -153 -77q-52 4 -27 206q-35 424 -12 560l1 11l-4 27l9 -1l-6 17q45 484 28 595l9 -1q-15 72 -7 437l8 -1l-7 6l1 5q14 91 127 84z" />
    <glyph glyph-name="braceright" unicode="}" horiz-adv-x="799" 
d="M364 1500h6l-6 -12l52 -49l65 -65q62 -57 117 -224v-4l-6 -3l6 -27l-6 -11l6 -15q0 -116 -176 -346v-4l215 -95q124 -27 124 -72l-13 -23l-339 -205v-4q72 -151 72 -216v-30l6 -19l-6 -4v-4l6 -4l-6 -38q-31 -245 -313 -444h-32q-25 9 -46 31v7q0 18 46 42
q247 202 247 421l-6 80q0 50 -85 194v11q0 20 19 34q274 155 274 167v8q-32 24 -182 72q-137 58 -137 87q0 31 52 61q146 163 163 315v4l-7 4l7 15q0 44 -52 129q-58 81 -111 107l7 3l-92 61l13 38l-6 15q41 23 85 23z" />
    <glyph glyph-name="asciitilde" unicode="~" horiz-adv-x="1319" 
d="M1204 918q25 -35 25 -55q-149 -315 -363 -315h-30q-86 0 -295 141q-30 28 -129 48q-116 0 -259 -174q0 -18 -49 -39l-24 16l-6 -8l-13 31l6 24h-6l-12 16q30 0 104 94q162 126 252 126h43q93 0 332 -165q50 -24 93 -24q175 0 282 260z" />
    <glyph glyph-name="Adieresis" unicode="&#xc4;" horiz-adv-x="1366" 
 />
    <glyph glyph-name="Aring" unicode="&#xc5;" horiz-adv-x="1366" 
 />
    <glyph glyph-name="Ccedilla" unicode="&#xc7;" horiz-adv-x="1479" 
 />
    <glyph glyph-name="Eacute" unicode="&#xc9;" horiz-adv-x="1366" 
 />
    <glyph glyph-name="Ntilde" unicode="&#xd1;" horiz-adv-x="1479" 
 />
    <glyph glyph-name="Odieresis" unicode="&#xd6;" horiz-adv-x="1593" 
 />
    <glyph glyph-name="Udieresis" unicode="&#xdc;" horiz-adv-x="1479" 
 />
    <glyph glyph-name="aacute" unicode="&#xe1;" 
 />
    <glyph glyph-name="agrave" unicode="&#xe0;" 
 />
    <glyph glyph-name="acircumflex" unicode="&#xe2;" 
 />
    <glyph glyph-name="adieresis" unicode="&#xe4;" 
 />
    <glyph glyph-name="atilde" unicode="&#xe3;" 
 />
    <glyph glyph-name="aring" unicode="&#xe5;" 
 />
    <glyph glyph-name="ccedilla" unicode="&#xe7;" horiz-adv-x="1024" 
 />
    <glyph glyph-name="eacute" unicode="&#xe9;" 
 />
    <glyph glyph-name="egrave" unicode="&#xe8;" 
 />
    <glyph glyph-name="ecircumflex" unicode="&#xea;" 
 />
    <glyph glyph-name="edieresis" unicode="&#xeb;" 
 />
    <glyph glyph-name="iacute" unicode="&#xed;" horiz-adv-x="569" 
 />
    <glyph glyph-name="igrave" unicode="&#xec;" horiz-adv-x="569" 
 />
    <glyph glyph-name="icircumflex" unicode="&#xee;" horiz-adv-x="569" 
 />
    <glyph glyph-name="idieresis" unicode="&#xef;" horiz-adv-x="569" 
 />
    <glyph glyph-name="ntilde" unicode="&#xf1;" 
 />
    <glyph glyph-name="oacute" unicode="&#xf3;" 
 />
    <glyph glyph-name="ograve" unicode="&#xf2;" 
 />
    <glyph glyph-name="ocircumflex" unicode="&#xf4;" 
 />
    <glyph glyph-name="odieresis" unicode="&#xf6;" 
 />
    <glyph glyph-name="otilde" unicode="&#xf5;" 
 />
    <glyph glyph-name="uacute" unicode="&#xfa;" 
 />
    <glyph glyph-name="ugrave" unicode="&#xf9;" 
 />
    <glyph glyph-name="ucircumflex" unicode="&#xfb;" 
 />
    <glyph glyph-name="udieresis" unicode="&#xfc;" 
 />
    <glyph glyph-name="dagger" unicode="&#x2020;" 
 />
    <glyph glyph-name="degree" unicode="&#xb0;" horiz-adv-x="819" 
 />
    <glyph glyph-name="cent" unicode="&#xa2;" 
 />
    <glyph glyph-name="sterling" unicode="&#xa3;" 
 />
    <glyph glyph-name="section" unicode="&#xa7;" 
 />
    <glyph glyph-name="bullet" unicode="&#x2022;" horiz-adv-x="717" 
d="M369 1071h40q102 0 144 -190q0 -107 -152 -190l-79 -14q-71 0 -160 134l-8 42v7l8 7l-8 7v14q87 183 215 183z" />
    <glyph glyph-name="paragraph" unicode="&#xb6;" horiz-adv-x="1100" 
 />
    <glyph glyph-name="germandbls" unicode="&#xdf;" horiz-adv-x="1251" 
 />
    <glyph glyph-name="registered" unicode="&#xae;" horiz-adv-x="1509" 
 />
    <glyph glyph-name="copyright" unicode="&#xa9;" horiz-adv-x="1509" 
 />
    <glyph glyph-name="trademark" unicode="&#x2122;" horiz-adv-x="2048" 
 />
    <glyph glyph-name="acute" unicode="&#xb4;" horiz-adv-x="682" 
 />
    <glyph glyph-name="dieresis" unicode="&#xa8;" horiz-adv-x="682" 
 />
    <glyph glyph-name="AE" unicode="&#xc6;" horiz-adv-x="2048" 
 />
    <glyph glyph-name="Oslash" unicode="&#xd8;" horiz-adv-x="1593" 
 />
    <glyph glyph-name="plusminus" unicode="&#xb1;" horiz-adv-x="1124" 
 />
    <glyph glyph-name="yen" unicode="&#xa5;" 
 />
    <glyph glyph-name="mu" unicode="&#xb5;" horiz-adv-x="1180" 
 />
    <glyph glyph-name="ordfeminine" unicode="&#xaa;" horiz-adv-x="758" 
 />
    <glyph glyph-name="ordmasculine" unicode="&#xba;" horiz-adv-x="748" 
 />
    <glyph glyph-name="ae" unicode="&#xe6;" horiz-adv-x="1821" 
 />
    <glyph glyph-name="oslash" unicode="&#xf8;" horiz-adv-x="1251" 
 />
    <glyph glyph-name="questiondown" unicode="&#xbf;" horiz-adv-x="1251" 
 />
    <glyph glyph-name="exclamdown" unicode="&#xa1;" horiz-adv-x="682" 
 />
    <glyph glyph-name="logicalnot" unicode="&#xac;" horiz-adv-x="1196" 
 />
    <glyph glyph-name="florin" unicode="&#x192;" 
 />
    <glyph glyph-name="guillemotleft" unicode="&#xab;" 
 />
    <glyph glyph-name="guillemotright" unicode="&#xbb;" 
 />
    <glyph glyph-name="ellipsis" unicode="&#x2026;" horiz-adv-x="2048" 
 />
    <glyph glyph-name="Agrave" unicode="&#xc0;" horiz-adv-x="1366" 
 />
    <glyph glyph-name="Atilde" unicode="&#xc3;" horiz-adv-x="1366" 
 />
    <glyph glyph-name="Otilde" unicode="&#xd5;" horiz-adv-x="1593" 
 />
    <glyph glyph-name="OE" unicode="&#x152;" horiz-adv-x="2048" 
 />
    <glyph glyph-name="oe" unicode="&#x153;" horiz-adv-x="1933" 
 />
    <glyph glyph-name="endash" unicode="&#x2013;" 
 />
    <glyph glyph-name="emdash" unicode="&#x2014;" horiz-adv-x="2048" 
 />
    <glyph glyph-name="quotedblleft" unicode="&#x201c;" horiz-adv-x="682" 
 />
    <glyph glyph-name="quotedblright" unicode="&#x201d;" horiz-adv-x="682" 
 />
    <glyph glyph-name="quoteleft" unicode="&#x2018;" horiz-adv-x="455" 
 />
    <glyph glyph-name="quoteright" unicode="&#x2019;" horiz-adv-x="455" 
 />
    <glyph glyph-name="divide" unicode="&#xf7;" horiz-adv-x="1124" 
 />
    <glyph glyph-name="ydieresis" unicode="&#xff;" horiz-adv-x="1024" 
 />
    <glyph glyph-name="Ydieresis" unicode="&#x178;" horiz-adv-x="1366" 
 />
    <glyph glyph-name="Euro" unicode="&#x20ac;" 
 />
    <glyph glyph-name="guilsinglleft" unicode="&#x2039;" horiz-adv-x="682" 
 />
    <glyph glyph-name="guilsinglright" unicode="&#x203a;" horiz-adv-x="682" 
 />
    <glyph glyph-name="daggerdbl" unicode="&#x2021;" 
 />
    <glyph glyph-name="periodcentered" unicode="&#xb7;" horiz-adv-x="569" 
 />
    <glyph glyph-name="periodcentered" unicode="&#x2219;" horiz-adv-x="569" 
 />
    <glyph glyph-name="quotesinglbase" unicode="&#x201a;" horiz-adv-x="455" 
 />
    <glyph glyph-name="quotedblbase" unicode="&#x201e;" horiz-adv-x="682" 
 />
    <glyph glyph-name="perthousand" unicode="&#x2030;" horiz-adv-x="2048" 
 />
    <glyph glyph-name="Acircumflex" unicode="&#xc2;" horiz-adv-x="1366" 
 />
    <glyph glyph-name="Ecircumflex" unicode="&#xca;" horiz-adv-x="1366" 
 />
    <glyph glyph-name="Aacute" unicode="&#xc1;" horiz-adv-x="1366" 
 />
    <glyph glyph-name="Edieresis" unicode="&#xcb;" horiz-adv-x="1366" 
 />
    <glyph glyph-name="Egrave" unicode="&#xc8;" horiz-adv-x="1366" 
 />
    <glyph glyph-name="Iacute" unicode="&#xcd;" horiz-adv-x="569" 
 />
    <glyph glyph-name="Icircumflex" unicode="&#xce;" horiz-adv-x="569" 
 />
    <glyph glyph-name="Idieresis" unicode="&#xcf;" horiz-adv-x="569" 
 />
    <glyph glyph-name="Igrave" unicode="&#xcc;" horiz-adv-x="569" 
 />
    <glyph glyph-name="Oacute" unicode="&#xd3;" horiz-adv-x="1593" 
 />
    <glyph glyph-name="Ocircumflex" unicode="&#xd4;" horiz-adv-x="1593" 
 />
    <glyph glyph-name="Ograve" unicode="&#xd2;" horiz-adv-x="1593" 
 />
    <glyph glyph-name="Uacute" unicode="&#xda;" horiz-adv-x="1479" 
 />
    <glyph glyph-name="Ucircumflex" unicode="&#xdb;" horiz-adv-x="1479" 
 />
    <glyph glyph-name="Ugrave" unicode="&#xd9;" horiz-adv-x="1479" 
 />
    <glyph glyph-name="circumflex" unicode="&#x2c6;" horiz-adv-x="682" 
 />
    <glyph glyph-name="tilde" unicode="&#x2dc;" horiz-adv-x="682" 
 />
    <glyph glyph-name="cedilla" unicode="&#xb8;" horiz-adv-x="682" 
 />
    <glyph glyph-name="Scaron" unicode="&#x160;" horiz-adv-x="1366" 
 />
    <glyph glyph-name="scaron" unicode="&#x161;" horiz-adv-x="1024" 
 />
    <glyph glyph-name="Zcaron" unicode="&#x17d;" horiz-adv-x="1251" 
 />
    <glyph glyph-name="zcaron" unicode="&#x17e;" horiz-adv-x="1024" 
 />
    <glyph glyph-name="brokenbar" unicode="&#xa6;" horiz-adv-x="532" 
 />
    <glyph glyph-name="Eth" unicode="&#xd0;" horiz-adv-x="1479" 
 />
    <glyph glyph-name="eth" unicode="&#xf0;" 
 />
    <glyph glyph-name="Yacute" unicode="&#xdd;" horiz-adv-x="1366" 
 />
    <glyph glyph-name="yacute" unicode="&#xfd;" horiz-adv-x="1024" 
 />
    <glyph glyph-name="Thorn" unicode="&#xde;" horiz-adv-x="1366" 
 />
    <glyph glyph-name="thorn" unicode="&#xfe;" 
 />
    <glyph glyph-name="multiply" unicode="&#xd7;" horiz-adv-x="1196" 
 />
    <glyph glyph-name="uni00B9" unicode="&#xb9;" horiz-adv-x="682" 
 />
    <glyph glyph-name="uni00B2" unicode="&#xb2;" horiz-adv-x="682" 
 />
    <glyph glyph-name="uni00B3" unicode="&#xb3;" horiz-adv-x="682" 
 />
    <glyph glyph-name="onehalf" unicode="&#xbd;" horiz-adv-x="1708" 
 />
    <glyph glyph-name="onequarter" unicode="&#xbc;" horiz-adv-x="1708" 
 />
    <glyph glyph-name="threequarters" unicode="&#xbe;" horiz-adv-x="1708" 
 />
    <glyph glyph-name="currency" unicode="&#xa4;" 
 />
    <glyph glyph-name="macron" unicode="&#xaf;" horiz-adv-x="1131" 
 />
    <glyph glyph-name="ccircumflex" unicode="&#x109;" horiz-adv-x="1024" 
 />
    <glyph glyph-name="iogonek" unicode="&#x12f;" horiz-adv-x="455" 
 />
    <glyph glyph-name="IJ" unicode="&#x132;" horiz-adv-x="1505" 
 />
    <glyph glyph-name="sacute" unicode="&#x15b;" horiz-adv-x="1024" 
 />
    <glyph glyph-name="zacute" unicode="&#x17a;" horiz-adv-x="1024" 
 />
  </font>
</defs>
</svg>
